<?xml version="1.0" encoding="UTF-8" standalone="no"?>
<!-- Created with Inkscape (http://www.inkscape.org/) -->

<svg
   width="210mm"
   height="297mm"
   viewBox="0 0 210 297"
   version="1.1"
   id="svg1"
   xml:space="preserve"
   inkscape:version="1.3 (0e150ed6c4, 2023-07-21)"
   sodipodi:docname="dandelion.svg"
   xmlns:inkscape="http://www.inkscape.org/namespaces/inkscape"
   xmlns:sodipodi="http://sodipodi.sourceforge.net/DTD/sodipodi-0.dtd"
   xmlns="http://www.w3.org/2000/svg"
   xmlns:svg="http://www.w3.org/2000/svg"><sodipodi:namedview
     id="namedview1"
     pagecolor="#505050"
     bordercolor="#eeeeee"
     borderopacity="1"
     inkscape:showpageshadow="0"
     inkscape:pageopacity="0"
     inkscape:pagecheckerboard="0"
     inkscape:deskcolor="#505050"
     inkscape:document-units="mm"
     inkscape:zoom="1.0378437"
     inkscape:cx="396.49515"
     inkscape:cy="420.58356"
     inkscape:window-width="2560"
     inkscape:window-height="1369"
     inkscape:window-x="2552"
     inkscape:window-y="-8"
     inkscape:window-maximized="1"
     inkscape:current-layer="layer1" /><defs
     id="defs1" /><g
     inkscape:label="Layer 1"
     inkscape:groupmode="layer"
     id="layer1"><path
       style="fill:#000000"
       d="m 65.415079,148.5071 c 0,-0.4431 -0.30377,-2.02068 -0.67505,-3.50573 -0.37129,-1.48505 -0.77622,-3.57531 -0.89985,-4.64503 -0.40922,-3.54082 -1.32229,-3.20596 -1.33537,0.48973 -0.004,1.23693 -0.19514,3.02287 -0.42392,3.96875 -0.22877,0.94589 -0.42049,1.98769 -0.42604,2.31511 -0.006,0.32742 -0.10315,0.59531 -0.2169,0.59531 -0.30541,0 -0.53561,-4.40136 -0.43591,-8.33437 0.0759,-2.99384 0.0243,-3.53106 -0.39825,-4.14546 -0.267,-0.38823 -0.85625,-1.57885 -1.30946,-2.64583 -0.59256,-1.39509 -1.29519,-2.44018 -2.50163,-3.72094 -1.98605,-2.10838 -2.36452,-2.78914 -2.57186,-4.62612 -0.0857,-0.75901 -0.52714,-2.22617 -0.98105,-3.26036 -0.45391,-1.03419 -0.96083,-2.52654 -1.12649,-3.31634 -0.27591,-1.31539 -0.72113,-1.96658 -0.72113,-1.05474 0,0.38179 -0.47191,0.82253 -0.66932,0.62512 -0.0577,-0.0577 0.0679,-0.75425 0.27905,-1.54785 0.21119,-0.79359 0.3854,-1.85245 0.38713,-2.35302 0.002,-0.50056 0.14493,-1.5966 0.31823,-2.43564 0.24719,-1.19675 0.24192,-2.20613 -0.0244,-4.68353 -0.37286,-3.46785 -0.45748,-3.06569 1.34479,-6.390501 1.11873,-2.06382 1.58062,-3.25795 1.84857,-4.77912 0.15479,-0.87879 0.21289,-1.66635 0.1291,-1.75014 -0.0838,-0.0838 -0.75242,0.35007 -1.48585,0.96414 -1.20766,1.01111 -1.33367,1.22026 -1.33525,2.21631 -10e-4,0.65215 -0.21572,1.42294 -0.52742,1.8936 -0.28912,0.43656 -0.52647,1.12117 -0.52742,1.52135 -10e-4,0.543251 -0.13187,0.727611 -0.5153,0.727611 -0.28245,0 -0.58834,-0.12101 -0.67974,-0.2689 -0.0914,-0.14789 -0.26068,-0.2105 -0.37618,-0.13912 -0.2145,0.13257 -0.17888,1.24376 0.0849,2.64815 0.0888,0.4727 -0.005,1.0181 -0.23666,1.37111 -0.30639,0.46761 -0.33075,0.87473 -0.1204,2.01258 0.20333,1.09995 0.17767,1.67016 -0.11212,2.49154 -0.23256,0.65913 -0.28635,1.20644 -0.14111,1.43583 0.4235,0.66889 0.25665,1.23134 -0.75044,2.52974 -0.54628,0.70429 -1.15548,1.63771 -1.35379,2.07428 -0.1983,0.43656 -0.45112,0.97712 -0.56183,1.20125 -0.11071,0.22413 -0.28749,1.26593 -0.39286,2.31511 -0.11964,1.19136 -0.30982,1.90759 -0.5065,1.90759 -1.06319,0 -3.82119,-4.24832 -3.9792,-6.12939 -0.0408,-0.48514 -0.32937,-1.33226 -0.64137,-1.88251 -0.46893,-0.82699 -0.50124,-1.02579 -0.18636,-1.14662 0.20951,-0.0804 0.59284,-0.0276 0.85184,0.11737 0.51916,0.29053 1.94248,-0.27559 1.94248,-0.77262 0,-0.51068 -0.54525,-1.29872 -0.89859,-1.29872 -0.19294,0 -0.63523,-0.53712 -0.98288,-1.1936 l -0.63208,-1.19359 0.79375,-1.47351 c 0.48709,-0.90422 0.82775,-1.30705 0.88175,-1.04266 0.0484,0.23697 -0.0357,0.57988 -0.18684,0.76201 -0.15115,0.18213 -0.35144,0.8103 -0.44509,1.39593 -0.15607,0.97604 -0.0799,1.16925 0.91444,2.31807 0.59658,0.6893 1.0847,1.35969 1.0847,1.48974 0,0.13006 -0.31416,0.55063 -0.69813,0.9346 -0.51593,0.51593 -0.89572,0.66913 -1.45521,0.58702 -0.89653,-0.13159 -0.93572,0.0279 -0.22791,0.92777 0.29104,0.36999 0.52917,0.92371 0.52917,1.23047 0,1.2269 0.71888,2.82435 1.77996,3.95531 0.61518,0.65569 1.1887,1.12197 1.27448,1.03619 0.0858,-0.0858 0.32015,-0.94064 0.5208,-1.89967 0.37246,-1.78017 2.03343,-5.12345 2.66597,-5.36617 0.21702,-0.0833 0.3585,-0.60416 0.37139,-1.36737 0.0115,-0.67806 0.0321,-1.70909 0.0458,-2.29117 0.0137,-0.58208 -0.0661,-1.56702 -0.17735,-2.18875 -0.16139,-0.90177 -0.10875,-1.23381 0.26028,-1.64158 0.38716,-0.42781 0.41455,-0.64901 0.16793,-1.35646 -0.37187,-1.06675 -0.37488,-2.1104 -0.009,-3.064211 l 0.28585,-0.74484 0.58398,0.72761 c 0.72026,0.897391 0.96098,0.917751 0.96098,0.0813 0,-0.35549 0.24115,-1.05505 0.53588,-1.55458 0.29726,-0.50381 0.50784,-1.2763 0.4729,-1.73478 l -0.063,-0.82654 -1.14996,1.12434 c -1.42638,1.39462 -2.46707,3.18081 -3.35345,5.755771 -1.04894,3.04716 -1.14516,3.4361 -1.34148,5.42275 -0.10066,1.01865 -0.29953,1.92472 -0.44194,2.0135 -0.14241,0.0888 -0.32409,1.33893 -0.40373,2.77812 -0.0796,1.43919 -0.18887,2.66632 -0.24273,2.72696 -0.19109,0.21513 -0.0553,-7.27325 0.15316,-8.44462 l 0.21185,-1.19063 0.0654,1.7198 0.0654,1.71979 0.22764,-1.56008 c 0.24091,-1.65096 0.6387,-3.2105 1.50881,-5.91517 0.29272,-0.90993 0.42018,-1.58516 0.28323,-1.50053 -0.46347,0.28645 -1.25072,2.35355 -1.42815,3.74996 -0.16243,1.27829 -0.65606,2.23223 -0.65606,1.26782 0,-0.78435 1.09557,-4.50787 1.44335,-4.90554 0.19089,-0.21829 0.61608,-0.932661 0.94486,-1.587511 0.32878,-0.65484 1.05133,-1.72219 1.60565,-2.37188 0.55433,-0.64969 0.97056,-1.21856 0.92495,-1.26417 -0.20655,-0.20655 -1.47922,0.48626 -1.47922,0.80526 0,0.54776 -1.15331,1.50787 -1.8113,1.50787 -0.32261,0 -0.65335,0.17406 -0.73499,0.38681 -0.0816,0.21274 -0.38565,0.46209 -0.67558,0.55411 -0.39758,0.12619 -0.48888,0.31976 -0.37146,0.78761 0.0856,0.34116 0.0508,0.6851 -0.0773,0.76431 -0.12816,0.0792 -0.3619,0.655861 -0.51942,1.281451 -0.1928,0.76567 -0.55615,1.33687 -1.11168,1.74759 -1.19432,0.883 -1.27936,0.48371 -0.12266,-0.57596 0.73296,-0.67149 0.94265,-1.03862 0.81783,-1.4319 -0.10302,-0.32458 -0.0122,-0.65804 0.23498,-0.86322 0.22157,-0.183881 0.40285,-0.657841 0.40285,-1.053221 0,-0.51006 0.19215,-0.80644 0.66146,-1.02027 0.3638,-0.16576 0.66146,-0.42299 0.66146,-0.57163 0,-0.14864 0.2769,-0.27026 0.61534,-0.27026 0.61578,0 1.56002,-0.82682 1.83123,-1.60351 0.0793,-0.22709 0.61019,-0.55251 1.17975,-0.72316 1.18105,-0.35385 2.61719,-1.64208 1.83062,-1.64208 -0.63535,0 -1.78694,0.62977 -2.40948,1.31767 -0.77496,0.85632 -2.13016,1.32816 -3.81465,1.32816 -0.82444,0 -1.73066,0.16077 -2.01821,0.35805 -1.74448,1.19681 -3.12946,1.75862 -4.33534,1.75862 -0.84415,0 -1.39932,0.14241 -1.62764,0.41751 -0.49582,0.59743 -2.76647,1.700681 -3.4798,1.690751 -0.33226,-0.005 -0.83523,-0.183221 -1.1177,-0.396881 -0.28248,-0.21365 -1.05638,-0.38891 -1.71979,-0.38945 -1.48311,-0.001 -2.74614,-0.72227 -3.49835,-1.99717 -0.58427,-0.99026 -2.20209,-1.98629 -2.86723,-1.76524 -0.21828,0.0725 -1.22174,0.60943 -2.22991,1.19307 l -1.83304,1.06118 -1.60654,-0.301 c -0.8836,-0.16555 -2.38046,-0.37841 -3.32634,-0.47303 -2.30312,-0.23039 -2.76708,-0.43619 -3.16858,-1.40548 -0.29349,-0.70855 -0.28027,-0.88965 0.0952,-1.30458 0.23982,-0.26499 0.88514,-0.61636 1.43404,-0.78082 0.54891,-0.16445 1.6286,-0.76949 2.39933,-1.34453 1.18999,-0.88785 4.28529,-2.14183 5.28685,-2.14183 0.15191,0 0.58879,-0.40984 0.97086,-0.91075 0.48925,-0.64144 0.9431,-0.93483 1.53482,-0.99219 0.69536,-0.0674 0.85458,-0.20683 0.92387,-0.80904 0.0664,-0.577194 0.22033,-0.727604 0.74456,-0.727604 0.36346,0 1.31939,-0.30123 2.12429,-0.6694 1.54838,-0.70824 2.61129,-0.84195 4.64881,-0.58477 1.71258,0.21615 1.8355,0.33702 1.7736,1.74405 -0.0639,1.452154 0.24697,3.214284 0.56703,3.214284 0.28462,0 0.91063,-1.10675 0.81347,-1.43815 -0.0399,-0.13614 -0.003,-0.52309 0.0811,-0.85989 0.13205,-0.52613 0.32065,-0.61237 1.33927,-0.61237 0.83063,0 1.18559,-0.10913 1.18559,-0.364484 0,-0.20046 0.19096,-0.52296 0.42436,-0.71667 0.3557,-0.29521 0.54317,-0.284 1.15875,0.0693 0.40836,0.23437 1.0422,0.36265 1.42773,0.28895 0.51678,-0.0988 0.69333,-0.0236 0.69333,0.29518 0,0.23525 -0.0298,0.474754 -0.0662,0.532234 -0.0364,0.0575 0.1678,0.36303 0.45375,0.679 0.4646,0.51338 0.55248,0.52991 0.82627,0.15547 0.42358,-0.57927 1.16737,-0.23232 1.16737,0.54454 0,0.51484 0.13642,0.63315 0.73011,0.63315 0.44356,0 0.8598,0.20768 1.06057,0.52916 0.22797,0.36503 0.61702,0.52917 1.25427,0.52917 0.63419,0 0.9238,0.1213 0.9238,0.38691 0,0.30772 0.37647,0.37552 1.83941,0.33129 2.15255,-0.0651 3.15499,0.45157 1.4362,0.74022 -2.46819,0.4145 -2.30622,0.61679 0.51032,0.63736 1.57294,0.0115 2.81503,-0.0684 2.76021,-0.17755 -0.0548,-0.10914 -0.48441,-0.99883 -0.95465,-1.97709 -0.54231,-1.12819 -1.13361,-1.94325 -1.61688,-2.22872 -0.41905,-0.24754 -0.81248,-0.64347 -0.87429,-0.87984 -0.0618,-0.236374 -0.63425,-0.586124 -1.27209,-0.777224 -1.45003,-0.43444 -2.90316,-1.88785 -2.69258,-2.6931 0.1095,-0.41876 -0.10464,-0.79492 -0.83173,-1.46103 -0.53856,-0.49338 -1.1214,-0.89201 -1.29521,-0.88583 -0.1738,0.006 -1.14687,0.29648 -2.16239,0.64511 -1.01551,0.34863 -1.89783,0.58243 -1.9607,0.51955 -0.0629,-0.0629 0.0683,-0.3234 0.29158,-0.57896 0.52212,-0.59768 0.9487,-2.04969 0.96906,-3.29852 0.0174,-1.06789 -0.0171,-1.11108 -1.09157,-1.36791 -0.54839,-0.13108 -0.72761,-0.0759 -0.72761,0.22413 0,0.21893 -0.3545,1.0844 -0.78779,1.92327 -0.43328,0.83887 -0.85485,1.93007 -0.93682,2.42488 -0.10087,0.60894 -0.50892,1.2253 -1.26273,1.90738 -0.61253,0.55424 -1.19435,1.0126 -1.29293,1.01857 -0.0986,0.006 -0.43571,-0.31521 -0.74918,-0.71372 -0.4441,-0.56458 -0.53221,-0.92972 -0.39901,-1.65365 0.094,-0.51099 0.25279,-1.82204 0.35283,-2.91345 l 0.18189,-1.98437 0.20626,1.79545 c 0.16447,1.43174 0.12417,1.91263 -0.19896,2.37397 -0.53752,0.76741 -0.51129,1.34111 0.086,1.88166 0.45345,0.41037 0.51874,0.41141 0.84902,0.0134 0.19678,-0.23711 0.6189,-0.53039 0.93804,-0.65172 0.34681,-0.13186 0.71253,-0.62638 0.90905,-1.22921 0.18084,-0.55473 0.59526,-1.60391 0.92093,-2.33151 0.32567,-0.72761 0.6729,-1.58842 0.77161,-1.91292 0.15089,-0.49599 0.34329,-0.57903 1.20764,-0.52115 0.56549,0.0379 1.11224,0.15293 1.215,0.25569 0.10275,0.10275 0.17239,1.14094 0.15473,2.30708 -0.0177,1.16614 0.0192,2.12026 0.082,2.12026 0.0627,0 0.6979,-0.23012 1.41144,-0.51137 l 1.29736,-0.51137 1.04481,0.97439 c 0.99742,0.93019 1.80557,2.47215 1.47101,2.80671 -0.22934,0.22934 0.66989,0.87531 2.19497,1.57679 0.73303,0.33717 1.53944,0.92844 1.79203,1.313944 0.25259,0.3855 0.57771,0.70091 0.72249,0.70091 0.41776,0 -3.38674,-4.953414 -5.79211,-7.541244 -1.39345,-1.49916 -4.32445,-4.82986 -5.47101,-6.2171 -1.33608,-1.61653 -5.59237,-5.73852 -6.44646,-6.24304 -0.45216,-0.2671 -0.8221,-0.58474 -0.8221,-0.70588 0,-0.26369 2.13191,1.17031 2.6273,1.76722 0.37183,0.44803 0.94818,0.58856 0.68812,0.16779 -0.1881,-0.30436 -4.04968,-3.45275 -4.23488,-3.45275 -0.27863,0 -2.8048,-1.65561 -2.69448,-1.76593 0.21619,-0.21619 2.93486,1.57826 5.33373,3.52052 3.4193,2.76845 3.66814,2.99989 3.45455,3.21296 -0.10575,0.1055 -0.48591,-0.14934 -0.8448,-0.56631 -0.35888,-0.41697 -0.71384,-0.69681 -0.7888,-0.62185 -0.075,0.075 0.55623,0.83481 1.40263,1.68857 1.4882,1.50113 3.46566,3.72881 5.01053,5.64454 0.41073,0.50932 1.49783,1.71138 2.41577,2.67125 0.91795,0.95987 1.95415,2.13171 2.30267,2.6041 0.34851,0.47239 1.03468,1.29439 1.5248,1.82667 0.49012,0.53227 1.27453,1.52724 1.74313,2.21104 0.93466,1.363904 1.63792,1.992634 1.09579,0.979654 -0.48024,-0.897344 -1.74674,-2.610154 -2.71971,-3.678134 -1.44935,-1.59088 -4.8283,-5.66953 -5.10183,-6.1583 -0.14356,-0.25653 -1.25672,-1.47657 -2.47369,-2.7112 -1.21697,-1.23462 -2.14534,-2.31211 -2.06304,-2.3944 0.16804,-0.16805 3.5704,3.27426 4.49634,4.54915 0.84041,1.15712 2.7447,3.49827 3.74008,4.59808 1.22371,1.3521 4.13579,4.96199 4.13579,5.12683 0,0.0777 0.29765,0.579964 0.66145,1.116054 1.07053,1.57751 0.77509,0.20809 -0.63146,-2.926944 -0.48001,-1.0699 -1.99294,-3.24391 -2.67587,-3.8451 -0.0827,-0.0728 -0.70788,-0.92208 -1.38939,-1.88738 -0.81324,-1.15189 -1.47888,-1.81526 -1.93677,-1.93019 -1.72381,-0.43264 -2.35292,-1.39002 -1.65149,-2.5132 0.25722,-0.41188 0.18534,-0.8058 -0.39763,-2.17922 -0.39139,-0.92206 -0.71127,-1.81237 -0.71085,-1.97848 4.3e-4,-0.17321 -0.55081,-0.008 -1.2926,0.38766 -1.10906,0.59139 -1.35497,0.63853 -1.72577,0.3308 -0.26495,-0.2199 -0.36963,-0.55667 -0.27029,-0.86964 0.0953,-0.30028 -0.0151,-0.70663 -0.26799,-0.98603 -0.40366,-0.44604 -0.38082,-0.48512 0.37141,-0.63556 0.44083,-0.0882 1.33802,-0.65484 1.99376,-1.25927 0.65573,-0.60444 1.19873,-1.05404 1.20666,-0.99913 0.30915,2.14014 0.78792,4.54643 1.0464,5.25922 0.97925,2.70043 3.65777,7.15248 4.66201,7.74887 0.19286,0.11454 0.73244,0.76938 1.19906,1.45521 0.46661,0.68583 0.91982,1.30649 1.00711,1.37925 0.71829,0.59867 2.14269,2.73627 2.46828,3.70417 0.22029,0.65484 0.52007,1.488284 0.66618,1.852084 0.96795,2.4101 1.44191,6.16328 0.70063,5.54807 -0.16687,-0.1385 -0.38822,-0.16699 -0.49189,-0.0633 -0.10366,0.10366 -0.2755,0.0477 -0.38186,-0.12443 -0.10636,-0.17209 -0.34549,0.65372 -0.53138,1.83516 -0.19115,1.21479 -0.6236,2.67603 -0.99536,3.36327 -2.46815,4.562671 -2.46784,4.561421 -2.03879,8.256251 0.16062,1.38311 0.13096,2.70913 -0.0947,4.23333 -0.40728,2.75128 -0.4267,3.48805 -0.0864,3.27772 0.16335,-0.10095 0.26459,0.35935 0.26459,1.20296 0,1.57942 0.54984,3.88663 1.29116,5.41787 0.45262,0.93491 0.87914,2.37898 1.4698,4.97631 0.0937,0.41207 0.94286,1.57171 1.887,2.57697 1.0546,1.12288 2.01992,2.48304 2.50308,3.52691 0.43255,0.93453 0.78646,1.77751 0.78646,1.87327 0,0.56421 1.77582,2.60374 2.65972,3.05467 0.57444,0.29306 1.04444,0.46115 1.04444,0.37354 0,-0.0876 -0.41596,-0.86903 -0.92437,-1.73649 -0.5084,-0.86747 -1.11586,-2.19719 -1.3499,-2.95494 -0.23404,-0.75776 -0.70528,-1.91352 -1.04719,-2.56836 -0.34192,-0.65485 -0.99706,-1.93477 -1.45587,-2.84427 -0.51118,-1.01329 -1.00281,-1.65522 -1.26959,-1.6577 -0.38,-0.004 -0.3849,-0.0397 -0.0385,-0.28473 0.26904,-0.19026 0.29939,-0.32088 0.0942,-0.40551 -0.16645,-0.0687 -0.23955,-0.38701 -0.16244,-0.70746 0.11485,-0.47726 0.0763,-0.52282 -0.2133,-0.25189 -0.61645,0.57675 -0.76793,0.35812 -0.3076,-0.44397 0.51881,-0.90398 0.41037,-1.31274 -1.3172,-4.9651 -0.85935,-1.81682 -1.04547,-2.49429 -1.03931,-3.78302 0.009,-1.92205 0.26731,-3.39047 0.63604,-3.61836 0.17405,-0.10756 0.22109,0.0403 0.12715,0.3995 -0.0934,0.3571 0.0779,0.90482 0.45838,1.46543 0.56341,0.83024 1.18943,3.60333 0.81343,3.60333 -0.0916,0 -0.39618,-0.53578 -0.67688,-1.19063 -0.2807,-0.65484 -0.58927,-1.19062 -0.68572,-1.19062 -0.4123,0 0.14763,2.6541 0.90435,4.28663 1.31955,2.84678 1.63345,3.67758 1.63345,4.3232 0,0.33423 0.16669,0.94477 0.37041,1.35675 0.20372,0.41197 0.51585,1.21424 0.69362,1.78282 0.17777,0.56858 0.66401,1.58061 1.08054,2.24896 0.41653,0.66835 1.01174,1.75096 1.32269,2.4058 2.1603,4.54938 2.40071,4.97576 3.69403,6.55178 0.15078,0.18374 0.21397,0.43144 0.14042,0.55045 -0.0735,0.11901 0.0286,0.83188 0.22708,1.58416 0.19845,0.75228 0.30787,1.36778 0.24316,1.36778 -0.0647,0 0.0123,0.24274 0.17103,0.53941 0.32319,0.60387 0.40865,5.67046 0.12147,7.20124 -0.22343,1.191 -0.65611,1.31297 -0.65611,0.18496 z m 0.52917,-3.8541 c 0,-1.96382 -0.71613,-4.98545 -1.35584,-5.72081 l -0.52165,-0.59966 0.17056,0.88061 c 0.0938,0.48434 0.19966,1.13918 0.23522,1.45521 0.21027,1.86917 1.06882,5.68716 1.25323,5.57319 0.12016,-0.0743 0.21848,-0.78911 0.21848,-1.58854 z m -3.99633,-2.98915 c 0.0118,-1.25014 0.0959,-2.779 0.18684,-3.39746 0.13168,-0.89516 0.0848,-1.12448 -0.23007,-1.12448 -0.33092,0 -0.40071,0.61549 -0.42748,3.77031 -0.0199,2.3486 0.0588,3.62972 0.20865,3.39747 0.13235,-0.20507 0.25028,-1.39569 0.26206,-2.64584 z M 48.394759,98.843469 c 0.25685,-0.54571 1.5127,-2.05372 2.79078,-3.35115 1.27808,-1.29743 2.2852,-2.39754 2.23804,-2.4447 -0.20348,-0.20348 -4.39897,4.20464 -5.03535,5.29053 -0.69153,1.18003 -0.81457,1.49751 -0.58035,1.49751 0.0659,0 0.33003,-0.44649 0.58688,-0.99219 z m -12.48072,-0.33073 c 1.12022,-0.96954 1.35011,-1.05834 2.74014,-1.05834 1.28286,0 1.88091,-0.18708 3.87023,-1.21071 1.91213,-0.98391 2.51715,-1.17991 3.2297,-1.04623 1.01621,0.19064 2.83541,-0.51568 3.62854,-1.40881 0.49565,-0.55814 0.49565,-0.56751 0,-0.56361 -0.27721,0.002 -1.45652,0.29982 -2.62069,0.66142 -1.16417,0.3616 -2.35479,0.64807 -2.64583,0.6366 -0.58906,-0.0232 -0.24341,-0.15778 1.98437,-0.77256 0.65484,-0.18072 1.60734,-0.4969 2.11667,-0.70265 1.11945,-0.4522 0.6208,-0.37743 -3.04271,0.4562 -3.65238,0.8311 -9.38291,0.83628 -14.40911,0.013 -1.95866,-0.32082 -3.61561,-0.63772 -3.68212,-0.70423 -0.22672,-0.22672 1.05949,-0.12152 3.22705,0.26394 6.03724,1.07361 9.28479,1.13821 13.8751,0.276 4.06489,-0.76353 7.57133,-1.62416 7.19457,-1.76587 -0.21156,-0.0796 -0.62278,-0.0505 -0.91382,0.0647 -0.95315,0.37713 -2.10634,0.27111 -2.41426,-0.22195 -0.16093,-0.25768 -0.62711,-0.49619 -1.03596,-0.53003 -0.40885,-0.0338 -0.9309,-0.22743 -1.16012,-0.43022 -0.22921,-0.20278 -0.65487,-0.41196 -0.94591,-0.46485 -0.31396,-0.0571 -0.56463,-0.3454 -0.61637,-0.70901 -0.0641,-0.45036 -0.20437,-0.5672 -0.52917,-0.44071 -0.80985,0.3154 -0.91539,0.27064 -1.55827,-0.66083 -0.35153,-0.50933 -0.84447,-0.93837 -1.09544,-0.953434 -0.25096,-0.0151 -0.72576,-0.17159 -1.0551,-0.34785 -0.52572,-0.28135 -0.66396,-0.23764 -1.13258,0.35811 -0.41185,0.523594 -0.77227,0.678584 -1.57794,0.678584 -0.96344,0 -1.03213,0.048 -0.88836,0.62081 0.10961,0.43672 -0.0906,0.98594 -0.67516,1.85209 -0.45704,0.6772 -0.94455,1.23127 -1.08337,1.23127 -0.46596,0 -0.79678,-1.41617 -0.81023,-3.46846 l -0.0134,-2.036334 -0.96462,-0.16817 c -2.72091,-0.47437 -2.8567,-0.4681 -4.16701,0.19231 -0.71254,0.35912 -1.68248,0.73661 -2.15542,0.83887 -0.47295,0.10225 -0.8599,0.315904 -0.8599,0.474784 0,0.55655 -0.88232,1.25658 -1.5838,1.25658 -0.48538,0 -0.81991,0.20905 -1.0638,0.66477 -0.22803,0.42606 -0.74285,0.77181 -1.43377,0.96289 -1.09839,0.30377 -4.07361,1.68372 -6.85732,3.18052 -1.62361,0.87302 -2.36003,1.84269 -1.81406,2.38866 0.16682,0.16682 1.34826,0.39118 2.62543,0.49859 1.27716,0.1074 2.9298,0.27986 3.67253,0.38325 1.20777,0.16811 1.58052,0.0841 3.5286,-0.79551 2.87001,-1.29585 3.516,-1.19246 5.06086,0.80996 1.34859,1.74802 2.17551,2.22427 3.87146,2.22968 0.69845,0.002 1.44851,0.11946 1.66679,0.26053 0.71051,0.45917 1.27007,0.28247 2.51354,-0.79375 z m -2.11666,-3.59658 c 1.05927,-0.17001 9.7668,-0.24559 8.99583,-0.0781 -0.43656,0.0949 -2.75828,0.17033 -5.15938,0.16773 -2.40109,-0.003 -4.1275,-0.043 -3.83645,-0.0897 z m -1.24024,-0.28833 c 0.191,-0.0764 0.4192,-0.067 0.50712,0.0209 0.0879,0.0879 -0.0683,0.15045 -0.34727,0.13896 -0.30822,-0.0127 -0.37091,-0.0754 -0.15985,-0.15985 z m -3.38997,-0.34843 c -0.3638,-0.11651 -1.03474,-0.2237 -1.49098,-0.23821 -0.45623,-0.0145 -1.23014,-0.20865 -1.71979,-0.43143 l -0.89027,-0.40505 0.92604,0.18365 c 0.50932,0.10101 2.11667,0.39035 3.57187,0.64299 1.89593,0.32916 2.30838,0.45942 1.45521,0.45962 -0.65484,1.5e-4 -1.48828,-0.0951 -1.85208,-0.21157 z m -12.01105,-0.78212 c 1.02102,-0.9665 6.5546,-1.66163 8.70376,-1.09337 0.94492,0.24985 0.84568,0.26804 -0.92604,0.16975 -2.33945,-0.12979 -4.91464,0.15044 -6.71939,0.7312 -0.71248,0.22927 -1.18873,0.31586 -1.05833,0.19242 z m 38.46001,-1.66527 c -0.005,-0.1819 -0.19198,-0.62839 -0.41515,-0.99219 -0.22318,-0.3638 -0.33802,-0.44336 -0.25521,-0.1768 0.0828,0.26657 0.15056,0.71305 0.15056,0.99219 0,0.27914 0.11907,0.50753 0.26459,0.50753 0.14552,0 0.26036,-0.14883 0.25521,-0.33073 z m -8.39675,-16.198634 c -0.48379,-0.97193 -0.92386,-1.08067 -1.0815,-0.26725 -0.0975,0.5032 0.59239,1.18619 1.19822,1.18619 0.25548,0 0.22629,-0.22986 -0.11672,-0.91894 z m -3.47311,-5.24273 c 0.75734,-0.51001 0.90897,-0.78104 0.96217,-1.71979 0.0347,-0.6129 0.009,-1.11437 -0.057,-1.11437 -0.33354,0 -2.64838,1.64092 -2.62556,1.86118 0.0145,0.14052 0.0443,0.55314 0.0661,0.91694 0.0493,0.82128 0.49542,0.83639 1.6542,0.056 z m 20.04582,42.592705 c -0.66365,-0.6269 -1.84988,-1.45671 -2.63609,-1.84403 -1.99697,-0.98379 -2.49314,-2.10503 -1.64174,-3.71003 0.24704,-0.46572 0.51493,-1.38254 0.59531,-2.03738 0.12021,-0.97938 0.25176,-1.20563 0.74145,-1.27517 0.67478,-0.0958 0.7769,-0.44796 0.22105,-0.7622 -0.31844,-0.18003 -0.32249,-0.4484 -0.0271,-1.79909 0.21025,-0.96145 0.34744,-1.27447 0.34789,-0.79375 4.1e-4,0.43656 -0.0875,1.09141 -0.1954,1.45521 -0.15516,0.52325 -0.0578,0.77669 0.46593,1.21298 0.75973,0.63288 0.59249,1.16827 -0.36495,1.16827 -0.52013,0 -0.64584,0.13471 -0.64584,0.69209 0,0.38065 -0.20267,1.26273 -0.45038,1.96016 -0.57823,1.62804 -0.26117,2.40505 1.29969,3.18516 0.62428,0.31201 1.69721,1.1127 2.38427,1.77932 1.14917,1.11496 1.29921,1.18527 1.87343,0.87796 1.18473,-0.63405 1.64169,-1.80565 1.62092,-4.1559 -0.0147,-1.66113 -0.14864,-2.39234 -0.59531,-3.24929 -0.31701,-0.60819 -0.57637,-1.40361 -0.57637,-1.76761 0,-0.93637 -0.64568,-2.36607 -1.6296,-3.60837 -0.46384,-0.585651 -1.17589,-1.767981 -1.58232,-2.627391 -0.73502,-1.55418 -1.36055,-2.11326 -1.83435,-1.63946 -0.15454,0.15454 0.1517,1.03485 0.81154,2.33287 0.58285,1.14657 1.05973,2.224851 1.05973,2.396181 0,0.17133 0.34407,1.07211 0.76461,2.00175 0.71735,1.58574 1.08729,3.29722 1.49487,6.91576 0.0943,0.83674 0.0692,1.52135 -0.0557,1.52135 -0.12489,0 -0.26213,-0.74414 -0.30497,-1.65364 -0.11262,-2.39106 -0.77721,-5.42268 -1.51943,-6.93112 -0.35417,-0.7198 -0.64395,-1.4372 -0.64395,-1.59424 0,-0.15703 -0.36186,-0.99686 -0.80414,-1.866281 l -0.80414,-1.58076 0.17291,1.19062 c 0.0951,0.65485 0.0877,1.10912 -0.0164,1.0095 -0.10412,-0.0996 -0.26655,-0.814 -0.36095,-1.58751 -0.13849,-1.13467 -0.27388,-1.42096 -0.70082,-1.48193 -0.40504,-0.0578 -0.67545,0.23294 -1.15282,1.23969 -0.34301,0.72339 -1.02081,1.91833 -1.50623,2.655401 -0.85488,1.29807 -0.88633,1.44184 -1.00212,4.58114 -0.13177,3.57245 -0.35626,5.14248 -0.77205,5.39945 -0.18129,0.11205 -0.20461,-0.0898 -0.0691,-0.59777 0.11256,-0.42181 0.25805,-2.48691 0.32332,-4.58911 0.0882,-2.8424 0.21292,-3.89366 0.48634,-4.10104 0.37962,-0.28792 0.39174,-0.82678 0.0315,-1.403341 -0.1275,-0.20409 -0.068,-0.33072 0.15531,-0.33072 0.19905,0 0.59303,-0.1765 0.87551,-0.39221 0.47796,-0.36499 0.44934,-0.38233 -0.41245,-0.24991 l -0.92604,0.14229 0.7276,-0.42 c 0.964,-0.55645 0.91907,-0.74447 -0.13229,-0.55367 -0.73391,0.1332 -0.65638,0.0507 0.52916,-0.56286 0.76399,-0.39541 1.38907,-0.86344 1.38907,-1.04006 0,-0.17662 0.38695,-0.40537 0.85989,-0.50834 0.8093,-0.17619 2.70534,-1.63631 5.04857,-3.88785 1.32115,-1.26945 4.01688,-3.07141 4.90952,-3.28175 0.38026,-0.0896 1.34624,-0.54888 2.1466,-1.02059 1.94849,-1.148394 6.78457,-3.653894 7.9375,-4.112304 1.24782,-0.49613 5.74586,-3.16276 5.33491,-3.16276 -0.17955,0 -0.6161,0.18979 -0.97012,0.42175 -0.35402,0.23196 -0.76375,0.38079 -0.91051,0.33073 -0.14676,-0.0501 0.6987,-0.6082 1.8788,-1.24032 1.30873,-0.70101 2.21131,-1.04303 2.31401,-0.87685 0.10156,0.16432 2.21375,-0.72621 5.32262,-2.24408 3.336669,-1.6291 5.584429,-2.56759 6.374179,-2.66136 1.146942,-0.13619 1.230352,-0.10333 1.394102,0.5491 0.25001,0.99612 0.56042,0.85774 0.94341,-0.42057 0.32152,-1.07313 0.30717,-1.13753 -0.38621,-1.73396 -0.57038,-0.49062 -0.89247,-0.58102 -1.548812,-0.43469 -1.28702,0.28693 -2.83504,0.18504 -4.10309,-0.27006 -2.1249,-0.76264 -3.147689,-0.49996 -6.059849,1.5563 -1.82069,1.28558 -3.39636,1.69664 -4.65869,1.21537 -0.67292,-0.25655 -0.8131,-0.21951 -1.17823,0.31133 -0.75489,1.09747 -1.94192,2.05773 -2.5437,2.05773 -0.43468,0 -0.71889,0.27853 -1.0631,1.04184 -0.25839,0.57302 -1.04449,1.63808 -1.74689,2.36681 -1.39068,1.4428 -2.50874,1.85117 -3.76284,1.37436 -0.55365,-0.2105 -0.75683,-0.19854 -0.82594,0.0486 -0.73652,2.63388 -1.77359,4.16423 -2.82197,4.16423 -0.26865,0 -0.61895,0.24382 -0.77844,0.54183 -0.30887,0.57712 -1.40836,1.130684 -2.18049,1.097794 -0.25711,-0.011 -0.66113,0.30027 -0.89783,0.69159 -0.23669,0.39132 -0.64838,1.03001 -0.91486,1.41929 -0.26648,0.38929 -0.37085,0.74648 -0.23192,0.79375 0.13892,0.0473 -0.4822,0.68127 -1.38027,1.40887 -0.89807,0.72761 -2.14829,1.78681 -2.77827,2.35379 -0.62997,0.56698 -1.20816,0.96812 -1.28486,0.89142 -0.0767,-0.0767 0.48923,-0.68942 1.25763,-1.3616 0.76841,-0.67218 1.33221,-1.22215 1.2529,-1.22215 -0.30931,0 -2.51756,1.14104 -2.95719,1.52803 -0.68622,0.60405 -0.8994,0.16156 -0.39066,-0.81087 0.58935,-1.12652 1.88622,-4.65854 4.00352,-10.903624 0.0987,-0.29104 -0.0579,-0.0529 -0.34789,0.52917 -0.51943,1.04255 -4.0455,9.552684 -4.38508,10.583334 -0.17218,0.52259 -0.18009,0.52214 -0.63574,-0.036 -0.25376,-0.31085 -0.61581,-1.44195 -0.80454,-2.51354 -0.42461,-2.41079 -0.90673,-3.78554 -2.19287,-6.252794 -1.02183,-1.96025 -1.44605,-2.58338 -4.39647,-6.458 -0.92228,-1.21117 -2.03321,-3.03557 -2.46872,-4.05422 -0.87154,-2.03847 -1.85379,-6.15789 -1.51783,-6.36552 0.117,-0.0723 0.29012,0.28103 0.3847,0.78521 0.13132,0.69999 0.35338,0.97992 0.93941,1.18421 0.42209,0.14714 0.76744,0.43958 0.76744,0.64986 0,0.21028 0.17859,0.45087 0.39688,0.53463 0.59676,0.229 0.47865,0.91213 -0.27915,1.61443 l -0.67602,0.62652 0.93959,1.80824 c 0.91324,1.75754 1.89611,3.17468 4.40667,6.35375 1.6825,2.13051 3.80241,6.250434 4.19591,8.154504 0.55128,2.66753 0.62458,2.75853 1.25219,1.55443 0.67752,-1.29985 0.96418,-2.54965 0.91311,-3.981054 -0.0217,-0.60703 0.0847,-1.43009 0.23638,-1.82902 0.17522,-0.46084 0.18362,-0.81747 0.0231,-0.97803 -0.13899,-0.139 -0.18793,-0.6519 -0.10876,-1.13979 0.0792,-0.4879 0.003,-1.44745 -0.16961,-2.13234 -0.26873,-1.06726 -0.25506,-1.27801 0.0957,-1.47429 0.88149,-0.4933 0.99008,-1.19418 0.39026,-2.51875 -0.3137,-0.69272 -0.79551,-1.57837 -1.07068,-1.9681 -0.49853,-0.70607 -0.49817,-0.70892 0.0995,-0.79375 0.47538,-0.0675 0.63318,-0.30468 0.76069,-1.14347 0.0885,-0.58209 0.17962,-0.82021 0.20249,-0.52917 0.0229,0.29104 0.15453,0.70776 0.29256,0.92604 0.22032,0.34841 0.30545,0.34241 0.69706,-0.0491 0.47788,-0.47775 0.45296,-0.63418 -0.81407,-5.11028 -0.20596,-0.7276 -0.51615,-1.85869 -0.68931,-2.51354 -0.17316,-0.65484 -0.59537,-2.08359 -0.93825,-3.175 -0.34287,-1.0914 -0.80834,-2.63922 -1.03437,-3.43958 -0.22603,-0.80036 -0.50875,-1.69333 -0.62827,-1.98438 -0.50445,-1.22838 -2.23354,-7.5237 -2.68883,-9.78958 -0.17544,-0.87312 -0.47681,-2.18281 -0.66971,-2.91041 -0.90511,-3.414 -0.88021,-10.01371 0.0479,-12.7 0.20111,-0.58209 0.37311,-1.35599 0.38221,-1.7198 0.0242,-0.96503 0.88242,-2.52932 1.33069,-2.42534 0.20914,0.0485 0.29198,-7e-5 0.18411,-0.10795 -0.10788,-0.10788 -0.0611,-0.3588 0.10385,-0.55761 0.51908,-0.62546 -0.0131,-0.73073 -0.65341,-0.12924 -0.33623,0.31587 -0.69295,0.57431 -0.79271,0.57431 -0.37953,0 -0.16129,-1.27401 0.24495,-1.4299 0.32406,-0.12436 0.38377,-0.0518 0.24891,0.30242 -0.13828,0.36319 -0.10691,0.39604 0.14216,0.14888 0.24964,-0.24773 0.23426,-0.45042 -0.0702,-0.92604 -0.72817,-1.13735 -0.77787,-1.53494 -0.19185,-1.53494 0.41828,0 0.50115,0.11827 0.37074,0.52916 -0.16441,0.518 -0.1062,0.55834 0.92604,0.64189 0.23614,0.0191 0.36716,0.24391 0.32352,0.55502 -0.0727,0.5182 -0.0697,0.51825 0.33335,0.006 0.36645,-0.46599 0.36558,-0.54021 -0.009,-0.74975 -0.22856,-0.12791 -0.59636,-0.16319 -0.81734,-0.0784 -0.32768,0.12574 -0.36829,0.002 -0.22022,-0.67242 0.13936,-0.63448 0.10304,-0.77806 -0.15629,-0.61779 -0.24018,0.14844 -0.289,0.0815 -0.16889,-0.23149 0.12414,-0.3235 0.0233,-0.44027 -0.38022,-0.44027 -0.37944,0 -0.5021,0.12265 -0.39687,0.39687 0.0838,0.21828 0.037,0.39688 -0.10398,0.39688 -0.14096,0 -0.25628,-0.35719 -0.25628,-0.79375 0,-0.43657 0.11033,-0.79375 0.24518,-0.79375 0.13485,0 0.29608,-0.14883 0.3583,-0.33073 0.0622,-0.1819 0.0687,-0.0628 0.0144,0.26458 -0.0663,0.39944 0.0335,0.59531 0.30316,0.59531 0.25513,0 0.40191,-0.24808 0.40191,-0.67929 0,-0.53814 0.10073,-0.64731 0.48478,-0.52542 0.59902,0.19012 1.49619,-0.72363 1.27541,-1.29897 -0.21385,-0.55729 -0.96157,-0.51466 -0.98732,0.0563 -0.0126,0.27933 -0.074,0.33116 -0.15489,0.13064 -0.0737,-0.18281 -0.26165,-0.25349 -0.41767,-0.15707 -0.18289,0.11304 -0.23066,-0.0274 -0.13446,-0.39522 0.16305,-0.62351 -0.0564,-0.73872 -0.52142,-0.27372 -0.16325,0.16326 -0.23761,0.49068 -0.16523,0.72761 0.0992,0.32471 0.0557,0.31209 -0.17676,-0.0513 -0.24469,-0.38252 -0.2215,-0.57802 0.11231,-0.94688 0.23137,-0.25566 0.42067,-0.61131 0.42067,-0.79034 0,-0.17903 0.10233,-0.26227 0.22739,-0.18498 0.12507,0.0773 0.19508,-0.1538 0.15559,-0.51355 -0.0395,-0.35975 0.0368,-0.65409 0.16949,-0.65409 0.1327,0 0.24128,0.19318 0.24128,0.42928 0,0.35157 0.0718,0.36965 0.39688,0.0999 0.44681,-0.37083 0.5592,-1.71906 0.1207,-1.44805 -0.39306,0.24293 -1.04327,-0.36981 -0.87042,-0.82026 0.0797,-0.20764 0.0131,-0.37753 -0.14802,-0.37753 -0.16109,0 -0.27879,0.0893 -0.26156,0.19844 0.0172,0.10914 0.01,0.61516 -0.0168,1.12448 -0.0429,0.8266 -0.0736,0.86259 -0.28576,0.33514 -0.15731,-0.39115 -0.37912,-0.53663 -0.65611,-0.43033 -0.37631,0.1444 -0.37306,0.21073 0.0323,0.65867 0.24793,0.27395 0.37213,0.57674 0.27601,0.67286 -0.0961,0.0961 -0.17477,0.0912 -0.17477,-0.0109 0,-0.10213 -0.23812,-0.0583 -0.52916,0.0975 -0.29105,0.15576 -0.52917,0.53172 -0.52917,0.83546 0,0.466 0.0633,0.49972 0.4053,0.21588 0.3567,-0.29603 0.37153,-0.24754 0.12367,0.40439 -0.23942,0.62972 -0.1941,0.83394 0.30227,1.36231 0.35503,0.37791 0.45103,0.62155 0.24491,0.62155 -0.18646,0 -0.2772,0.16108 -0.20165,0.35796 0.0756,0.19689 -0.0903,0.55291 -0.36857,0.79116 -0.60944,0.52182 -0.6325,0.39227 -0.11003,-0.61808 0.22116,-0.42768 0.28953,-0.83134 0.15489,-0.91455 -0.13255,-0.0819 -0.30131,6.1e-4 -0.37501,0.18342 -0.0737,0.18281 -0.1434,0.0645 -0.15489,-0.26293 -0.0115,-0.32743 -0.13293,-0.59532 -0.26986,-0.59532 -0.36005,0 -0.59473,0.46707 -0.32,0.63686 0.12838,0.0793 0.17388,0.45571 0.10112,0.83636 -0.0965,0.50465 -0.19326,0.59594 -0.35734,0.33705 -0.17272,-0.2725 -0.22598,-0.24588 -0.22909,0.11451 -0.002,0.26041 -0.3115,0.58646 -0.69427,0.73199 -0.55599,0.21139 -0.62985,0.33516 -0.37979,0.63646 0.24576,0.29613 0.20312,0.43146 -0.20472,0.64973 -0.28333,0.15163 -0.56763,0.6333 -0.63178,1.07037 -0.0934,0.63642 -0.0469,0.73681 0.23348,0.50411 0.19256,-0.15981 0.35011,-0.44069 0.35011,-0.62418 0,-0.18349 0.23812,-0.39589 0.52917,-0.472 0.32242,-0.0843 0.52916,-0.3609 0.52916,-0.70794 0,-0.31325 0.11175,-0.50048 0.24832,-0.41608 0.13658,0.0844 0.38039,-0.0574 0.5418,-0.31511 0.2489,-0.39741 0.26843,-0.36811 0.12856,0.19287 -0.0907,0.3638 -0.51311,0.96779 -0.93867,1.34219 -0.8348,0.73443 -1.0163,1.18875 -0.37688,0.94338 0.46832,-0.17971 0.49324,-0.0496 0.12298,0.64224 -0.30397,0.56797 -0.008,0.68741 0.48457,0.19527 0.24562,-0.24563 0.40373,-0.20118 0.70596,0.19843 0.37107,0.49065 0.39004,0.4775 0.40192,-0.2788 0.009,-0.54712 0.0831,-0.68233 0.23968,-0.43516 0.23981,0.37846 0.21588,0.49597 -0.95075,4.66849 -0.6725,2.40521 -0.73617,3.00677 -0.70009,6.61459 0.0305,3.04453 0.17542,4.55408 0.62252,6.48229 0.32056,1.38245 0.67882,3.04932 0.79614,3.70417 0.11732,0.65484 0.30042,1.54781 0.40689,1.98437 0.10647,0.43656 0.11193,0.71893 0.0121,0.62748 -0.1933,-0.17713 -0.89986,-3.00846 -1.59449,-6.38941 -1.20954,-5.88717 -1.03597,-9.23523 0.78853,-15.21023 0.15481,-0.50698 0.10679,-0.57064 -0.31192,-0.41348 -0.43532,0.16339 -0.45152,0.13241 -0.13458,-0.25728 0.43909,-0.53989 0.19009,-1.42391 -0.29732,-1.05556 -0.18018,0.13616 -0.61324,0.26257 -0.96235,0.28091 -0.47807,0.0251 -0.55971,-0.0417 -0.33073,-0.27069 0.16721,-0.16722 0.30403,-0.48262 0.30403,-0.70091 0,-0.30868 -0.0705,-0.32631 -0.3175,-0.0794 -0.61455,0.61455 -0.97962,0.36356 -0.82823,-0.56938 0.1794,-1.10549 -0.48883,-1.49237 -1.33537,-0.77314 -0.52564,0.44659 -0.53487,0.44666 -0.18981,0.001 0.31289,-0.40373 0.2941,-0.54841 -0.13685,-1.05377 -0.38748,-0.45439 -0.39827,-0.50752 -0.0481,-0.23685 0.24829,0.19192 0.57571,0.27214 0.72761,0.17827 0.15189,-0.0939 0.27617,-0.0361 0.27617,0.12841 0,0.17895 0.15942,0.13967 0.39687,-0.0978 0.55772,-0.55771 0.49427,-0.73378 -0.20151,-0.55915 -0.32911,0.0826 -1.04348,-0.0358 -1.5875,-0.2631 -1.31851,-0.5509 -1.26585,-0.74492 0.0739,-0.27224 1.6003,0.56462 2.34798,0.13649 1.3457,-0.77056 -0.37098,-0.33573 -0.5307,-0.36714 -0.6129,-0.12053 -0.0753,0.22596 -0.16682,0.18851 -0.28372,-0.11612 -0.23296,-0.60707 0.22579,-0.56701 1.16496,0.10174 l 0.77434,0.55138 -0.0633,-0.83124 c -0.0348,-0.45718 -0.23893,-0.97319 -0.45356,-1.14669 -0.31224,-0.25242 -0.34686,-0.24345 -0.17324,0.0449 0.30872,0.51265 -0.35899,0.84791 -0.95162,0.4778 -0.35958,-0.22456 -0.6101,-0.22688 -0.95917,-0.009 -0.39048,0.24386 -0.47247,0.20899 -0.47247,-0.20094 0,-0.2907 0.18643,-0.496 0.45043,-0.496 0.24773,0 0.50036,-0.0893 0.56139,-0.19843 0.061,-0.10915 0.0747,-0.0496 0.0303,0.13229 -0.0443,0.1819 0.15377,0.33073 0.44024,0.33073 0.54039,0 0.73382,-0.67867 0.24032,-0.84317 -0.15429,-0.0514 0.26242,-0.31742 0.92605,-0.59109 1.24692,-0.51421 1.55033,-0.91707 0.74356,-0.98729 -0.25466,-0.0222 -0.60345,-0.0534 -0.77508,-0.0695 -0.59773,-0.056 -0.64999,-0.37226 -0.0908,-0.54973 0.4623,-0.14673 0.50494,-0.24871 0.23832,-0.56997 -0.27778,-0.3347 -0.21286,-0.36712 0.44909,-0.2243 0.74697,0.16116 0.75545,0.15216 0.24464,-0.25944 -0.29104,-0.23451 -0.78913,-0.49167 -1.10686,-0.57145 -0.35905,-0.0902 -0.52358,-0.2861 -0.43472,-0.51768 0.0786,-0.20494 0.0182,-0.37261 -0.13429,-0.37261 -0.40307,0 -0.68549,0.55918 -0.38242,0.75718 0.4317,0.28204 0.28126,1.07741 -0.23476,1.24119 -0.68642,0.21786 -0.60777,0.49658 0.37482,1.32821 l 0.8599,0.72779 -1.05833,-0.16302 c -0.96881,-0.14923 -1.01489,-0.13047 -0.54475,0.22177 0.50311,0.37694 0.50208,0.38479 -0.0505,0.38479 -0.64108,0 -0.94503,-0.37496 -0.98163,-1.21096 -0.0237,-0.54189 0.0112,-0.55238 0.58566,-0.17596 0.33599,0.22015 0.65645,0.35438 0.71215,0.29828 0.15434,-0.15544 -0.71851,-1.15649 -1.31168,-1.50432 -0.45051,-0.26419 -0.39316,-0.28688 0.40015,-0.15835 0.70038,0.11347 0.82933,0.0811 0.52917,-0.13278 -0.33879,-0.24141 -0.32437,-0.2834 0.0985,-0.28685 0.35866,-0.003 0.42351,-0.0953 0.23492,-0.33479 -0.14327,-0.1819 -0.34028,-0.66439 -0.4378,-1.0722 -0.16542,-0.69181 -0.1396,-0.7213 0.38543,-0.44031 0.49726,0.26612 0.54373,0.24129 0.3994,-0.21344 -0.29221,-0.92067 0.0927,-1.40086 1.06999,-1.33504 0.49244,0.0332 0.89535,0.16793 0.89535,0.29948 0,0.13156 -0.29449,0.16528 -0.65441,0.0749 -0.52192,-0.13099 -0.62214,-0.0801 -0.49503,0.25111 0.0877,0.22844 0.32262,0.35272 0.52212,0.27616 0.19951,-0.0766 0.36274,-0.0319 0.36274,0.0993 0,0.13115 -0.23804,0.314 -0.52897,0.40634 -0.42975,0.13639 -0.47763,0.26381 -0.25528,0.67928 0.33681,0.62933 1.4541,1.38446 2.12115,1.4336 0.52671,0.0388 1.57351,0.86072 1.57351,1.23548 0,0.12297 -0.23812,-0.0146 -0.52916,-0.30559 -0.29105,-0.29104 -0.73052,-0.52917 -0.97662,-0.52917 -0.39016,0 -0.3817,0.0497 0.0662,0.38846 0.61246,0.46324 0.0832,0.54756 -0.72434,0.11539 -0.52302,-0.27991 -0.52824,-0.26396 -0.15158,0.46302 0.54482,1.05154 1.01036,2.54318 0.84525,2.7083 -0.076,0.076 -0.2021,-0.10626 -0.28023,-0.40502 -0.10692,-0.40885 -0.30063,-0.51288 -0.78326,-0.42062 -0.66167,0.12649 -0.83024,0.55977 -0.38933,1.00068 0.13853,0.13853 0.28193,0.69813 0.31866,1.24354 0.0498,0.7395 0.18363,0.99167 0.52626,0.99167 0.77658,0 0.87925,-0.58179 0.20207,-1.14511 -0.41413,-0.3445 -0.47521,-0.47142 -0.17438,-0.36233 0.32066,0.11629 0.46302,0.0349 0.46302,-0.26475 0,-0.23797 0.0737,-0.35897 0.16379,-0.26888 0.0901,0.0901 0.32841,-8.4e-4 0.52962,-0.20205 0.27444,-0.27444 0.29963,-0.54 0.1008,-1.06296 -0.3709,-0.97553 -0.3313,-1.11009 0.15147,-0.5148 0.4051,0.49952 0.41292,0.49687 0.28539,-0.0969 -0.0988,-0.45988 0.0269,-0.68248 0.50953,-0.90237 0.6756,-0.30783 0.80781,-0.60158 0.38762,-0.86128 -0.13917,-0.086 -0.19009,-0.3204 -0.11316,-0.52088 0.0823,-0.21443 -0.0859,-0.43614 -0.40843,-0.53852 -0.5522,-0.17526 -0.68818,-0.43946 -0.38316,-0.74447 0.0908,-0.0908 0.36376,0.0802 0.60651,0.37994 0.40456,0.4996 0.47132,0.50901 0.80017,0.11277 0.30725,-0.37022 0.28664,-0.48691 -0.1435,-0.8125 -0.31471,-0.23822 -0.37294,-0.38333 -0.15593,-0.38861 0.19306,-0.005 0.26301,-0.14325 0.15805,-0.31308 -0.13047,-0.2111 -0.29778,-0.15494 -0.54479,0.18287 -0.33775,0.4619 -0.35648,0.45623 -0.35648,-0.10783 0,-0.32952 -0.11814,-0.52234 -0.26459,-0.43183 -0.14552,0.0899 -0.26458,0.0445 -0.26458,-0.10106 0,-0.14552 0.11906,-0.33817 0.26458,-0.42811 0.14552,-0.0899 0.26459,-0.38661 0.26459,-0.65927 0,-0.71797 1.18916,-2.9556001 1.4441,-2.7173401 0.11865,0.11089 0.15713,-0.1222 0.0855,-0.51798 -0.0716,-0.39578 -0.0284,-0.65664 0.0961,-0.5797 0.1245,0.077 0.22818,0.46029 0.23041,0.85189 0.003,0.5568901 0.0599,0.6255301 0.26053,0.31511 0.21328,-0.33002 0.25999,-0.30774 0.2773,0.1323001 0.0183,0.46553 0.0513,0.45296 0.27432,-0.1045601 0.30973,-0.7743 0.3896,-0.69838 0.5827,0.5538601 0.14454,0.93738 0.12495,0.96861 -0.46666,0.74368 -0.55179,-0.20979 -0.60989,-0.16516 -0.54574,0.41926 0.0395,0.35972 0.16486,0.73944 0.27859,0.84382 0.11373,0.10437 0.14316,-0.0692 0.0654,-0.38575 -0.1047,-0.4261 -0.0422,-0.53744 0.24072,-0.42888 0.21018,0.0806 0.31371,0.32496 0.23008,0.54291 -0.0836,0.21795 -0.0164,0.55977 0.14948,0.75961 0.32674,0.39369 0.88722,0.50908 0.65606,0.13506 -0.0776,-0.12555 3e-4,-0.98875 0.17309,-1.91823 0.17841,-0.95966 0.35492,-1.4326901 0.40846,-1.09464 0.11345,0.71635 0.27606,0.74433 0.76872,0.13229 0.28335,-0.3520101 0.27582,-0.2625901 -0.0314,0.37297 -0.22227,0.4598 -0.55545,0.89722 -0.74042,0.97205 -0.25758,0.10421 -0.2434,0.20174 0.0606,0.41673 0.34248,0.2422 0.33341,0.28123 -0.0661,0.28472 -0.25466,0.002 -0.46302,0.18265 -0.46302,0.40093 0,0.48487 0.24916,0.49213 0.86449,0.0252 0.26101,-0.19806 0.39917,-0.53323 0.3127,-0.75857 -0.0852,-0.22206 -0.0277,-0.48233 0.12769,-0.5784 0.15544,-0.0961 0.28262,-0.0416 0.28262,0.12114 0,0.1627 0.12785,0.2168 0.28412,0.12022 0.15626,-0.0966 0.1265,0.0786 -0.0662,0.38933 -0.29629,0.47787 -0.2891,0.60353 0.0466,0.8154 0.21828,0.13776 0.62014,0.1809 0.89303,0.0959 0.3551,-0.11064 0.43736,-0.0595 0.28935,0.18001 -0.15056,0.24362 -0.0517,0.29406 0.36348,0.18548 0.31365,-0.082 0.64696,-0.025 0.74069,0.1266 0.1013,0.1639 0.3673,0.0197 0.65584,-0.35556 l 0.48543,-0.63131 0.006,0.63632 c 0.006,0.62016 0.0194,0.62412 0.53667,0.15596 0.76021,-0.68798 0.94666,-0.306 0.21365,0.43772 -0.33722,0.34215 -0.4998,0.53279 -0.36129,0.42365 0.4141,-0.32628 0.80774,-0.22517 0.46352,0.11906 -0.48975,0.48975 -0.37799,0.7836 0.27781,0.73048 0.32742,-0.0265 0.7739,-0.0332 0.99219,-0.0149 0.33238,0.0279 0.33696,0.0713 0.0282,0.26679 -0.21218,0.13435 -0.30833,0.46419 -0.22653,0.77701 0.0782,0.29896 0.006,0.59974 -0.1605,0.6684 -0.20515,0.0846 -0.1748,0.21524 0.0942,0.40551 0.21828,0.15437 0.28377,0.2825 0.14552,0.28472 -0.13824,0.002 -0.11575,0.13966 0.05,0.3054 0.2254,0.2254 0.0579,0.42543 -0.66448,0.79375 -1.21414,0.619 -1.31268,0.61631 -0.73674,-0.0201 0.25509,-0.28187 0.38558,-0.63906 0.28998,-0.79375 -0.27178,-0.43975 -0.59688,-0.33163 -0.74871,0.249 -0.0925,0.35374 -0.27894,0.47643 -0.56003,0.36857 -0.51918,-0.19923 -0.55538,-0.63424 -0.0528,-0.63424 0.35815,0 0.7722,-0.6234 0.81092,-1.22091 0.0105,-0.16218 0.19591,-0.50935 0.412,-0.7715 0.36519,-0.44302 0.3421,-0.46397 -0.32767,-0.29717 -0.56931,0.14179 -0.68922,0.0978 -0.57125,-0.20962 0.10017,-0.26105 -0.0756,-0.44552 -0.53439,-0.56066 -0.37603,-0.0944 -0.61795,-0.27795 -0.53761,-0.40795 0.22081,-0.35729 -0.52058,-0.28317 -0.94395,0.0944 -0.31553,0.28136 -0.31859,0.26161 -0.0205,-0.13229 0.301,-0.39779 0.28554,-0.46302 -0.10975,-0.46302 -0.34812,0 -0.42934,0.161 -0.33367,0.66145 0.14232,0.74452 -0.17883,0.88343 -0.54202,0.23445 -0.26302,-0.46999 -1.37482,-0.29106 -1.37482,0.22127 0,0.15826 -0.22865,0.0808 -0.50811,-0.17208 -0.48535,-0.43923 -0.52229,-0.43334 -0.82453,0.13141 -0.27235,0.50887 -0.25685,0.56837 0.11123,0.42713 0.23521,-0.0903 0.42766,-0.0488 0.42766,0.0922 0,0.14095 0.22538,0.25628 0.50086,0.25628 0.48384,0 0.83997,0.50685 0.80528,1.14611 -0.009,0.17 -0.12371,0.0432 -0.25443,-0.28181 -0.15389,-0.38265 -0.3811,-0.53586 -0.64468,-0.43471 -0.46142,0.17706 -0.55253,0.62874 -0.12684,0.62874 0.15411,0 0.20542,0.121 0.11401,0.2689 -0.0914,0.14789 -0.29725,0.18789 -0.45745,0.0889 -0.18474,-0.11418 -0.23219,-0.0261 -0.12974,0.24092 0.0888,0.23152 -0.003,0.55741 -0.20389,0.72421 -0.20098,0.1668 -0.29273,0.49269 -0.20389,0.7242 0.10068,0.26237 0.0542,0.35462 -0.12335,0.24488 -0.18145,-0.11215 -0.23432,0.0172 -0.14564,0.35636 0.0766,0.29284 0.42267,0.60357 0.76908,0.69051 0.66334,0.16649 0.83494,0.84812 0.33849,1.34456 -0.18545,0.18546 -0.21548,0.6134 -0.0826,1.1774 l 0.20873,0.88605 0.18361,-0.79375 c 0.18305,-0.79135 0.1837,-0.7916 0.21491,-0.0818 0.0172,0.39159 0.16912,0.79716 0.33757,0.90127 0.2085,0.12886 0.26006,0.0126 0.16153,-0.36418 -0.093,-0.35563 0.001,-0.60944 0.26352,-0.71011 0.35079,-0.13461 0.33736,-0.21453 -0.0954,-0.56785 -0.42763,-0.34914 -0.43492,-0.38967 -0.0483,-0.26855 0.25045,0.0785 0.60763,-0.001 0.79375,-0.17684 0.18611,-0.17571 0.57056,-0.33999 0.85433,-0.36505 0.60662,-0.0536 1.99759,0.61455 1.99759,0.9595 0,0.39908 0.80343,1.0707 1.27567,1.06639 0.35538,-0.003 0.37126,-0.0502 0.0795,-0.235 -0.20054,-0.12702 -0.29308,-0.34671 -0.20564,-0.48818 0.0874,-0.14148 -0.3105,-0.46894 -0.88431,-0.72769 -0.5738,-0.25875 -1.23217,-0.67917 -1.46303,-0.93427 -0.25903,-0.28623 -0.63245,-0.4082 -0.97525,-0.31855 -0.3785,0.099 -0.4952,0.0477 -0.36623,-0.161 0.1041,-0.16844 0.052,-0.30626 -0.11569,-0.30626 -0.16773,0 -0.36689,0.23679 -0.44257,0.52619 -0.0757,0.28941 -0.23436,0.4664 -0.35261,0.39331 -0.28083,-0.17356 0.17441,-1.75204 0.57707,-2.00089 0.17136,-0.10591 0.46078,-0.13531 0.64315,-0.0653 0.18237,0.07 0.38772,-0.0899 0.45632,-0.35521 0.1193,-0.4614 0.12608,-0.46156 0.15544,-0.004 0.0198,0.30881 0.14803,0.40813 0.36142,0.27994 0.22472,-0.13501 0.21434,-0.0552 -0.0324,0.24897 -0.41981,0.51754 -0.0477,0.60794 0.48131,0.11693 0.19598,-0.1819 0.28718,-0.20598 0.20267,-0.0535 -0.0845,0.15247 -0.0443,0.45013 0.0894,0.66146 0.18587,0.29382 0.24498,0.22858 0.25118,-0.27722 0.006,-0.5234 0.0612,-0.57862 0.26259,-0.26458 0.13997,0.21828 0.18477,0.62064 0.0995,0.89414 -0.13307,0.42704 -0.0408,0.4805 0.65353,0.3786 0.44466,-0.0653 0.7482,-0.0211 0.67454,0.0981 -0.0737,0.11919 0.0814,0.22508 0.3447,0.23531 0.42724,0.0166 0.42182,0.043 -0.0505,0.24598 -0.4525,0.19445 -0.46208,0.23009 -0.0662,0.24599 0.25466,0.0102 0.46302,0.14288 0.46302,0.29478 0,0.1519 0.14883,0.25685 0.33073,0.23323 0.67276,-0.0874 1.01888,0.0271 0.85989,0.28434 -0.0899,0.14552 -0.45415,0.26458 -0.80936,0.26458 -0.77846,0 -0.85707,0.41221 -0.11558,0.60612 0.34322,0.0898 0.47548,0.28139 0.37497,0.54331 -0.0854,0.22256 -0.32333,0.34017 -0.52874,0.26135 -0.2054,-0.0788 -0.29621,-0.26829 -0.2018,-0.42105 0.10023,-0.16219 0.0446,-0.19919 -0.13381,-0.089 -0.45479,0.28107 -0.36937,0.86861 0.15755,1.08369 0.42452,0.17328 0.41901,0.20592 -0.0661,0.39248 -0.29998,0.11536 -0.68167,0.0813 -0.88129,-0.0785 -0.28649,-0.22947 -0.31797,-0.0878 -0.16885,0.76031 0.17298,0.98385 0.15981,1.01265 -0.23477,0.51317 -0.414,-0.52405 -0.41813,-0.52341 -0.42646,0.0661 -0.005,0.34904 -0.1726,0.59532 -0.40529,0.59532 -0.21828,0 -0.39688,0.17859 -0.39688,0.39687 0,0.21828 -0.17859,0.39688 -0.39687,0.39688 -0.21828,0 -0.39688,-0.13891 -0.39688,-0.30869 0,-0.16977 -0.0783,-0.23033 -0.17409,-0.13458 -0.0958,0.0958 -0.35452,0.0263 -0.57505,-0.15434 -0.34083,-0.27918 -0.37843,-0.241 -0.25077,0.25458 0.19508,0.75728 -0.33227,1.48273 -0.91522,1.25902 -0.66253,-0.25423 -0.86008,-1.16459 -0.36102,-1.66365 0.27617,-0.27617 0.42407,-0.31202 0.42407,-0.10279 0,0.1767 0.11906,0.32128 0.26458,0.32128 0.14552,0 0.26459,-0.17859 0.26459,-0.39688 0,-0.21828 -0.1318,-0.39687 -0.29289,-0.39687 -0.16109,0 -0.22436,-0.17859 -0.1406,-0.39688 0.0928,-0.24175 4.2e-4,-0.39687 -0.23628,-0.39687 -0.21371,0 -0.38857,0.18233 -0.38857,0.40518 0,0.22285 -0.16781,0.46957 -0.37292,0.54828 -0.27805,0.1067 -0.3164,0.34018 -0.15076,0.91774 0.13207,0.4605 0.12236,0.77463 -0.0239,0.77463 -0.13536,0 -0.24612,0.24515 -0.24612,0.54478 0,0.319 -0.11713,0.47239 -0.28262,0.37012 -0.15544,-0.0961 -0.21633,-0.34741 -0.13532,-0.55853 0.081,-0.21112 0.0431,-0.31948 -0.0842,-0.24079 -0.12731,0.0787 -0.29467,-0.0986 -0.37192,-0.39401 -0.11359,-0.43437 -0.0435,-0.50628 0.3668,-0.37607 0.54377,0.17259 0.63894,-0.0508 0.26983,-0.6335 -0.39275,-0.61997 -1.31522,0.53136 -1.16628,1.45564 0.0948,0.58863 0.0592,0.66956 -0.15905,0.36153 -0.20992,-0.29623 -0.28227,-0.30821 -0.28529,-0.0472 -0.002,0.19229 -0.16907,0.51464 -0.37075,0.71632 -0.20168,0.20168 -0.66636,1.29574 -1.03261,2.43124 -1.21182,3.75699 -1.35563,6.02659 -0.65858,10.39344 0.29036,1.81901 0.61968,3.96213 0.73184,4.7625 0.33819,2.41354 1.59832,7.27941 2.36393,9.12812 0.66783,1.6126 0.8142,2.04762 0.8142,2.41986 0,0.22582 0.16773,0.78577 0.37275,1.24432 0.36721,0.82135 0.58784,1.65394 0.85194,3.21499 0.0739,0.43656 0.24,1.03187 0.3692,1.32291 0.12921,0.29104 0.43403,1.36261 0.67739,2.38125 0.73558,3.07901 1.9527,6.20469 2.35584,6.04999 0.47919,-0.18388 2.1645,-3.44039 2.37931,-4.59753 0.24438,-1.31639 -0.11349,-2.03557 -1.90969,-3.83778 -2.0723,-2.07923 -2.15514,-2.35578 -0.8251,-2.75427 1.16937,-0.35035 2.97402,-1.84817 3.53589,-2.93469 0.24955,-0.48259 0.31609,-1.17902 0.21044,-2.2027 -0.17609,-1.70612 -0.0716,-1.77319 1.50703,-0.96781 1.23611,0.63062 3.23036,0.70319 3.70215,0.13472 0.20601,-0.24823 0.26151,-0.71413 0.14971,-1.25677 -0.54783,-2.65901 -0.54208,-2.69048 0.6334,-3.46837 1.84811,-1.22303 2.55104,-2.99717 1.88333,-4.75338 -0.20424,-0.5372 -0.12567,-0.75968 0.46302,-1.31103 0.38996,-0.36522 1.18526,-0.90603 1.76735,-1.2018 0.58208,-0.29577 1.46841,-0.84465 1.96963,-1.21974 1.13404,-0.84865 1.60224,-0.86436 1.60224,-0.0538 0,0.34551 0.16079,1.08965 0.35732,1.65365 0.19653,0.564 0.4351,1.97962 0.53015,3.14581 l 0.17282,2.12036 -1.27914,0.45432 c -0.86188,0.30611 -1.38005,0.67578 -1.58848,1.13323 -0.45827,1.00579 -0.38427,1.32869 0.38479,1.6791 0.66291,0.30204 0.67364,0.33891 0.23867,0.81955 -0.25051,0.2768 -0.37941,0.62635 -0.28644,0.77677 0.093,0.15041 -0.0305,0.65931 -0.27436,1.13089 -0.38811,0.75051 -0.40091,1.02362 -0.10272,2.19058 0.18737,0.73325 0.4352,1.51177 0.55075,1.73005 0.68277,1.28989 1.82467,6.55597 1.82544,8.41835 3.2e-4,0.78844 -0.0602,0.859 -0.59495,0.69366 -0.91474,-0.28284 -2.5243,-1.13543 -2.70964,-1.43531 -0.24,-0.38833 -0.0269,-0.3377 1.3077,0.3107 0.65554,0.31849 1.26202,0.50894 1.34774,0.42323 0.22925,-0.22926 -0.33885,-3.98952 -0.84315,-5.58078 -0.23961,-0.75605 -0.72847,-2.26577 -1.08637,-3.35492 -0.60064,-1.8279 -0.62488,-2.09256 -0.31508,-3.43958 0.1846,-0.80262 0.42669,-1.64424 0.53799,-1.87027 0.13476,-0.27368 0.0318,-0.51748 -0.30826,-0.72985 -0.84491,-0.52765 -0.65708,-1.71848 0.42028,-2.66441 0.51199,-0.44954 1.22985,-0.89237 1.59524,-0.98408 0.63671,-0.1598 0.65972,-0.23545 0.5534,-1.81893 -0.061,-0.90871 -0.24308,-1.89913 -0.4046,-2.20094 -0.16153,-0.30181 -0.29368,-1.03282 -0.29368,-1.62447 0,-0.59165 -0.0759,-1.07573 -0.16859,-1.07573 -0.0927,0 -1.2913,0.68461 -2.6635,1.52135 -2.28311,1.3922 -2.48083,1.57751 -2.32893,2.18281 0.43768,1.74402 0.42558,2.0847 -0.11135,3.13718 -0.30741,0.60256 -1.03282,1.40918 -1.61203,1.79248 -0.92138,0.60974 -1.0531,0.82294 -1.0531,1.70447 0,0.55416 0.12603,1.08545 0.28007,1.18066 0.41747,0.258 0.0274,1.76898 -0.59518,2.30553 -0.776,0.66876 -2.85161,0.62152 -3.75025,-0.0854 l -0.69714,-0.54837 v 1.12629 c 0,1.68201 -0.9044,3.28144 -2.61473,4.62412 -0.81747,0.64176 -1.63514,1.1669 -1.81704,1.16699 -0.58652,3e-4 -0.35837,0.38993 1.01294,1.72991 2.29203,2.23965 2.5088,3.08548 1.45524,5.6783 -0.87217,2.14642 -2.63509,4.59124 -3.73959,5.18606 -1.09847,0.59156 -1.13154,0.95797 -0.19703,2.18317 0.97706,1.28099 0.96655,2.55541 -0.0276,3.34812 -0.63507,0.50639 -0.69914,0.67169 -0.44466,1.1472 0.16353,0.30556 0.29887,1.12462 0.30076,1.82013 0.002,0.69551 0.0112,1.5027 0.0207,1.79374 0.01,0.29104 -0.0695,0.97565 -0.17548,1.52135 -0.62414,3.213384 1.81797,-1.8605 3.98382,-8.27702 1.88696,-5.59029 2.27767,-6.65902 2.39245,-6.54424 0.0515,0.0515 -0.25893,1.14997 -0.68993,2.44097 -0.43101,1.29099 -0.73993,2.39097 -0.68651,2.4444 0.0899,0.0899 0.41675,-0.66605 0.81125,-1.87594 0.0898,-0.27549 0.22842,-0.43578 0.30799,-0.35622 0.0796,0.0796 -0.14442,0.90029 -0.49775,1.82381 -0.9659,2.5246 -4.23354,12.031364 -4.80596,13.982264 l -0.19408,0.66146 0.47423,-0.66146 c 0.26082,-0.3638 0.68856,-0.81704 0.95054,-1.00719 0.26197,-0.19015 0.47631,-0.49529 0.47631,-0.67808 0,-0.51706 1.24806,-2.978474 2.12185,-4.184704 0.55267,-0.76295 0.78857,-1.39585 0.78857,-2.11572 0,-0.56493 0.16148,-1.41361 0.35884,-1.88597 0.58617,-1.40289 2.82258,-3.19396 5.16933,-4.13994 1.79057,-0.72178 2.40933,-1.17191 2.40933,-1.75275 0,-0.0609 -0.31159,-0.11065 -0.69242,-0.11065 -0.4587,0 -1.03449,-0.35247 -1.70579,-1.04421 -2.23753,-2.30561 -1.94609,-6.12793 0.43319,-5.68157 0.77288,0.14499 0.98448,0.0593 1.56865,-0.6349 0.75179,-0.89346 1.97982,-1.28816 2.70136,-0.86825 0.3826,0.22265 0.26054,0.27688 -0.63788,0.28339 -0.95961,0.007 -1.20969,0.13741 -1.83507,0.95733 -0.61163,0.80188 -0.84054,0.92599 -1.47419,0.79926 -1.21456,-0.24291 -1.85262,0.59615 -1.64301,2.1606 0.27012,2.0161 1.07544,3.0516 2.6237,3.37361 2.02394,0.42094 2.07715,0.51322 0.99219,1.72084 -0.45209,0.50319 -1.57671,1.15134 -2.96998,1.71168 -2.4354,0.97946 -4.48176,2.62664 -4.53467,3.65011 -0.084,1.62572 -0.31825,2.26667 -1.64623,4.5052 -0.79232,1.33561 -1.52264,2.815324 -1.62291,3.288274 -0.10028,0.47294 -0.30856,0.85989 -0.46286,0.85989 -0.37058,0 -0.91487,0.71142 -1.41423,1.84847 -0.22281,0.50734 -0.65786,1.19148 -0.96679,1.52032 -0.7944,0.84559 -0.40463,1.03353 0.74128,0.35743 0.53387,-0.315 1.0303,-0.5131 1.10317,-0.44023 0.23793,0.23793 1.57445,-0.60282 2.26737,-1.42631 0.37263,-0.44284 1.00105,-1.39962 1.39649,-2.12617 0.62784,-1.15355 0.82471,-1.32101 1.55308,-1.32101 0.77554,0 1.99221,-0.789714 1.99221,-1.293094 0,-0.11777 0.46712,-0.39763 1.03803,-0.62189 1.16159,-0.45628 1.94668,-1.68833 2.25456,-3.5381 l 0.181,-1.08746 0.97519,0.34824 c 0.53635,0.19153 1.24247,0.35347 1.56916,0.35986 0.78462,0.0153 2.97954,-2.17406 3.60796,-3.59889 0.35769,-0.81101 0.67386,-1.13497 1.21285,-1.24277 0.77029,-0.15406 2.39041,-1.37005 2.39041,-1.79414 0,-0.13771 0.19479,-0.54765 0.43285,-0.91098 0.40239,-0.61412 0.4661,-0.63051 0.90551,-0.23285 0.25996,0.23526 0.95257,0.49212 1.53913,0.57079 1.2615,0.16921 2.60885,-0.44498 4.53018,-2.06507 1.38636,-1.169 2.57219,-1.48932 4.026709,-1.0877 0.68641,0.18953 1.57934,0.15584 3.19868,-0.12069 1.95441,-0.33374 2.3647,-0.33419 3.156182,-0.004 0.76111,0.31802 0.96673,0.5906 1.2586,1.66845 0.19187,0.70858 0.45693,1.4286 0.58901,1.60005 0.2875,0.37319 -0.28056,1.57804 -1.08892,2.3096 -0.44753,0.405 -0.55626,0.42576 -0.55626,0.10617 0,-0.21848 -0.19066,-0.77941 -0.42368,-1.24652 -0.553102,-1.10872 -1.392252,-1.02457 -2.004172,0.20096 -0.79948,1.60119 -1.46405,2.08682 -3.29113,2.405 -2.317789,0.40362 -2.829689,0.62963 -4.134719,1.82552 -1.08707,0.99616 -1.20523,1.0369 -3.37547,1.16362 -2.24098,0.13085 -2.26819,0.14118 -7.67555,2.91349 -2.98463,1.5302 -6.13978,3.21222 -7.01146,3.737824 -0.87167,0.5256 -1.77356,0.95594 -2.00419,0.95631 -1.08691,0.002 -7.37143,4.50986 -7.92482,5.68474 -0.31371,0.66601 3.58206,0.94519 5.68257,0.40721 0.97556,-0.24985 1.4277,-0.2595 1.78234,-0.038 0.64373,0.40202 1.0174,0.37347 1.56196,-0.11935 0.41815,-0.37842 0.53267,-0.37842 1.26446,0 1.045,0.54039 1.08021,0.53697 2.86137,-0.27775 0.83432,-0.38163 1.95698,-0.75289 2.4948,-0.82502 0.83725,-0.1123 1.04311,-0.0316 1.43174,0.56157 0.38291,0.58439 0.64811,0.69273 1.69581,0.69273 1.47133,0 1.67773,0.14212 3.45835,2.38125 1.87763,2.36111 2.58183,4.017511 2.92461,6.879161 0.1133,0.94589 0.28939,2.04555 0.39131,2.44371 0.51942,2.02907 -0.75077,3.54017 -1.85934,2.212 -0.29104,-0.34869 -0.7631,-0.67649 -1.04903,-0.72845 -0.28592,-0.052 -0.76587,-0.45952 -1.06654,-0.90569 -0.30068,-0.44618 -0.69633,-0.76135 -0.87923,-0.70038 -0.41854,0.13951 -1.97986,-0.5892 -2.43348,-1.13578 -0.25797,-0.31083 -0.61808,-0.37042 -1.46816,-0.24295 -1.31035,0.1965 -1.58132,-0.10278 -1.80988,-1.99902 -0.0762,-0.63231 -0.2916,-1.24681 -0.47862,-1.36556 -0.44762,-0.28422 -2.7947,0.0163 -3.70035,0.47373 -0.92989,0.46971 -1.39105,0.45565 -1.81513,-0.0553 -0.47507,-0.57243 -2.22304,-1.43587 -2.90681,-1.43587 -0.38224,0 -0.65877,-0.25455 -0.86229,-0.793751 -0.16479,-0.43656 -0.46569,-0.79375 -0.66868,-0.79375 -0.20298,0 -0.80772,-0.4943 -1.34385,-1.09845 -0.70959,-0.79961 -1.31322,-1.18438 -2.21876,-1.4143 -0.68419,-0.17373 -1.24397,-0.28987 -1.24397,-0.25811 0,0.41464 1.3739,2.93347 2.24696,4.119441 0.62054,0.84293 1.21138,1.97576 1.31299,2.5174 0.10161,0.54164 0.53282,1.861 0.95823,2.93192 0.99891,2.5146 1.03371,4.34782 0.1169,6.15706 -0.62599,1.23534 -1.51599,2.12629 -2.12402,2.12629 -0.15488,0 -0.82459,-0.51292 -1.48823,-1.13981 z m 24.26579,-4.80248 c 0.16589,-0.66096 -0.22478,-3.6422 -0.72952,-5.56709 -0.56951,-2.17184 -2.53686,-5.481831 -4.11228,-6.918761 -0.47944,-0.43729 -0.85056,-0.5389 -1.60552,-0.43958 -0.75488,0.0993 -1.20713,-0.0245 -1.95583,-0.53533 -0.93118,-0.63537 -1.02717,-0.64848 -2.18869,-0.29891 -0.66814,0.20108 -1.47677,0.54909 -1.79695,0.77336 -0.73013,0.5114 -1.34079,0.51545 -2.30794,0.0153 -0.66969,-0.34631 -0.84699,-0.3465 -1.50822,-0.002 -0.87778,0.45782 -1.57583,0.50456 -1.81266,0.12137 -0.18258,-0.29543 -1.94925,-0.0771 -2.34835,0.29015 -0.1307,0.12028 0.10628,0.29306 0.52916,0.3858 0.42124,0.0924 1.83744,0.44597 3.14713,0.78578 1.30969,0.3398 3.27422,0.76162 4.36562,0.93736 2.26608,0.3649 4.32823,1.08176 5.29167,1.83952 0.85267,0.670641 0.17871,0.695301 -0.75875,0.0278 -0.93687,-0.66711 -2.99169,-1.23494 -6.385,-1.76444 -1.52797,-0.23842 -3.07578,-0.58146 -3.43958,-0.7623 -0.82492,-0.41007 -3.93095,-1.06377 -4.12628,-0.86843 -0.0794,0.0794 0.37,0.26941 0.99874,0.42217 0.62874,0.15276 2.29971,0.68649 3.71326,1.18607 1.41356,0.49959 3.29231,1.03555 4.17501,1.19104 2.18201,0.38435 7.83399,3.440091 9.4148,5.090101 1.13746,1.18725 0.54599,1.22653 -0.86963,0.0577 -3.24227,-2.67691 -6.80955,-4.412711 -10.52778,-5.122691 -1.01864,-0.19451 -2.22316,-0.55704 -2.67669,-0.80563 -0.77192,-0.42309 -3.74388,-1.2944 -4.4151,-1.2944 -0.1662,0 0.0889,0.35719 0.56686,0.79375 0.47798,0.43656 0.96707,0.79375 1.08687,0.79375 0.11981,0 0.40608,0.28731 0.63617,0.63847 0.23072,0.35212 0.80801,0.72224 1.2872,0.82526 0.47787,0.102731 1.36761,0.520871 1.97719,0.929181 l 1.10833,0.74239 1.80199,-0.37702 c 0.99109,-0.20737 2.06141,-0.37703 2.3785,-0.37703 0.8211,0 1.4074,0.69443 1.41211,1.67255 0.006,1.24417 0.32074,1.54917 1.84772,1.79056 0.75927,0.12002 1.51643,0.39637 1.68259,0.6141 0.16861,0.22096 0.82819,0.43059 1.49272,0.47444 1.08859,0.0718 1.21228,0.1521 1.44327,0.93664 0.19889,0.67552 0.43136,0.8916 1.09271,1.01567 0.53772,0.10088 0.94469,0.38721 1.13075,0.79557 0.37313,0.81894 0.77699,0.81375 0.9844,-0.0126 z M 65.033789,95.726199 c -0.55522,-0.41995 -3.07678,-0.55923 -2.64819,-0.14628 0.28275,0.27242 1.18678,0.46602 2.36803,0.50712 0.75323,0.0262 0.76753,0.008 0.28016,-0.36084 z m -0.94973,-14.940554 c 0,-0.35277 -0.0285,-0.35277 -0.25648,0 -0.14106,0.21829 -0.25648,0.57547 -0.25648,0.79375 0,0.35278 0.0285,0.35278 0.25648,0 0.14107,-0.21828 0.25648,-0.57546 0.25648,-0.79375 z m 26.32089,-0.94294 c 0.53039,-0.80948 1.97116,-1.52388 3.918929,-1.9432 1.58778,-0.34182 2.69125,-1.08022 3.67147,-2.4568 l 0.57201,-0.80332 -0.63499,0.19739 c -0.34925,0.10856 -2.36546,1.04498 -4.48047,2.08094 -4.315269,2.11367 -6.439299,3.07613 -6.775369,3.07013 -0.12489,-0.002 -0.0485,-0.13035 0.1698,-0.28472 0.35278,-0.24949 0.35278,-0.26864 0,-0.17234 -0.21828,0.0596 -0.39869,0.21748 -0.40092,0.35087 -0.002,0.1334 -0.0806,0.3616 -0.17407,0.50712 -0.10952,0.17044 0.52131,0.23382 1.77287,0.17813 1.71164,-0.0762 1.99261,-0.16235 2.36074,-0.7242 z m -25.28402,-2.23206 c 0,-0.21828 -0.22482,0.13891 -0.4996,0.79375 -0.27478,0.65485 -0.4996,1.36922 -0.4996,1.5875 0,0.21829 0.22482,-0.1389 0.4996,-0.79375 0.27478,-0.65484 0.4996,-1.36921 0.4996,-1.5875 z m 36.902331,-2.51354 c 0.0838,-0.21828 0.037,-0.39687 -0.10398,-0.39687 -0.14095,0 -0.25628,0.17859 -0.25628,0.39687 0,0.21828 0.0468,0.39688 0.10399,0.39688 0.0572,0 0.17251,-0.1786 0.25627,-0.39688 z m -53.158231,-2.93657 c 0.25169,-0.3442 0.16939,-0.57283 -0.44163,-1.22694 -0.92769,-0.99309 -1.1827,-0.797 -0.76717,0.58993 0.3382,1.12882 0.70705,1.32319 1.2088,0.63701 z m 51.694881,-0.50235 c 0.059,-0.059 -0.20603,-0.18581 -0.588872,-0.2819 -0.84663,-0.21249 -3.13352,0.0976 -2.94688,0.39956 0.1287,0.20824 3.315912,0.10218 3.535752,-0.11766 z M 59.624019,26.999165 c -0.21608,-0.21607 -0.29435,-0.18647 -0.29435,0.11135 0,0.52595 0.35578,0.88174 0.48727,0.48727 0.0558,-0.16735 -0.031,-0.43673 -0.19292,-0.59862 z m 2.0869,-0.71768 c 0,-0.29398 -0.17639,-0.52917 -0.39688,-0.52917 -0.23202,0 -0.39687,-0.2408 -0.39687,-0.57973 0,-0.56656 0.009,-0.56807 0.38846,-0.0661 0.37915,0.50128 0.38866,0.49947 0.39687,-0.0752 0.007,-0.5179 0.088,-0.5585 0.66988,-0.33728 0.56718,0.21564 0.66145,0.177 0.66145,-0.27113 0,-0.28744 0.15875,-0.52262 0.35278,-0.52262 0.19403,0 0.35278,-0.1786 0.35278,-0.39688 0,-0.38752 -0.0935,-0.44845 -0.7717,-0.5027 -0.1819,-0.0145 -0.39026,-0.086 -0.46302,-0.15875 -0.0728,-0.0728 -0.53121,-0.41259 -1.01877,-0.75518 -0.83314,-0.58541 -0.87638,-0.59106 -0.71862,-0.094 0.10631,0.33495 -0.005,0.70192 -0.30415,1.00086 -0.43438,0.43439 -0.47882,0.43661 -0.55755,0.0279 -0.12032,-0.62464 -0.39312,-0.5489 -0.7433,0.20635 -0.33337,0.71902 -0.22919,0.93703 0.44776,0.93703 0.53337,0 0.89417,0.71091 0.43797,0.86298 -0.2144,0.0715 -0.15999,0.33278 0.17612,0.84574 0.33645,0.5135 0.54766,0.64317 0.68518,0.42066 0.14639,-0.23687 0.24119,-0.21119 0.35961,0.0974 0.22229,0.57928 0.442,0.52455 0.442,-0.11011 z m -1.15402,-2.24896 c -0.0838,-0.21828 -0.0516,-0.39687 0.0716,-0.39687 0.12314,0 0.37211,0.17859 0.55326,0.39687 0.26814,0.32309 0.25483,0.39688 -0.0716,0.39688 -0.22053,0 -0.46949,-0.1786 -0.55326,-0.39688 z m 1.02173,-0.39687 c -0.41826,-0.43657 -0.6884,-0.79375 -0.60031,-0.79375 0.0881,0 0.34848,-0.0723 0.57867,-0.1606 0.28493,-0.10934 0.41851,-0.0104 0.41851,0.30989 0,0.25877 0.19705,0.68823 0.43788,0.95435 0.74125,0.81908 -0.026,0.53423 -0.83475,-0.30989 z m 0.92604,2.11666 c 0,-0.14552 -0.12609,-0.26458 -0.2802,-0.26458 -0.15411,0 -0.20661,0.11906 -0.11668,0.26458 0.0899,0.14552 0.21603,0.26459 0.2802,0.26459 0.0642,0 0.11668,-0.11907 0.11668,-0.26459 z m -3.43959,-1.21846 c 0,-0.17768 -0.9076,-1.16279 -1.07131,-1.16279 -0.088,0 -0.10961,0.34305 -0.0481,0.76234 0.0875,0.5962 0.22167,0.73362 0.61564,0.6306 0.27706,-0.0725 0.50375,-0.17602 0.50375,-0.23015 z m -1.66446,-1.09338 c 0.0911,-0.98942 0.0473,-1.10054 -0.37292,-0.94534 -0.64872,0.23962 -0.8642,0.60899 -0.86898,1.48965 -0.003,0.61502 0.0963,0.73116 0.5673,0.66146 0.46191,-0.0683 0.59113,-0.29934 0.6746,-1.20577 z m -0.81247,0.0629 c -0.0838,-0.21828 -0.037,-0.39687 0.10399,-0.39687 0.14095,0 0.25628,0.17859 0.25628,0.39687 0,0.21828 -0.0468,0.39688 -0.10399,0.39688 -0.0572,0 -0.17251,-0.1786 -0.25628,-0.39688 z m -5.67223,0.0794 c -0.24695,-0.24694 -0.38806,-0.24694 -0.635,0 -0.24695,0.24695 -0.17639,0.3175 0.3175,0.3175 0.49389,0 0.56444,-0.0706 0.3175,-0.3175 z m 11.05958,-1.63448 c 0,-0.0549 -0.18132,-0.25037 -0.40293,-0.4343 -0.33691,-0.2796 -0.37562,-0.26323 -0.23628,0.0999 0.14232,0.37088 0.63921,0.63083 0.63921,0.33441 z m -1.5875,-0.42927 c 0,-0.14552 -0.11906,-0.26458 -0.26458,-0.26458 -0.14552,0 -0.26459,0.11906 -0.26459,0.26458 0,0.14552 0.11907,0.26458 0.26459,0.26458 0.14552,0 0.26458,-0.11906 0.26458,-0.26458 z m 3.32619,-0.52917 c 0,-0.33161 -0.17639,-0.52916 -0.47247,-0.52916 -0.60917,0 -0.6169,0.7172 -0.009,0.87595 0.25466,0.0665 0.46727,0.13481 0.47247,0.15169 0.005,0.0169 0.01,-0.20743 0.01,-0.49848 z m -1.80009,-1.05832 c -0.37922,-0.60722 -0.73235,-0.69228 -0.73235,-0.17639 0,0.44982 0.25655,0.70556 0.7078,0.70556 0.28879,0 0.29337,-0.0987 0.0245,-0.52917 z m -10.78652,-0.9569 c 0,-0.0558 -0.23812,-0.10143 -0.52916,-0.10143 -0.29104,0 -0.52917,0.10791 -0.52917,0.23981 0,0.1319 0.23813,0.17754 0.52917,0.10143 0.29104,-0.0761 0.52916,-0.18402 0.52916,-0.23981 z m 12.96459,-2.2181 c 0,-0.14552 -0.11907,-0.26458 -0.26459,-0.26458 -0.14552,0 -0.26458,0.11906 -0.26458,0.26458 0,0.14552 0.11906,0.26458 0.26458,0.26458 0.14552,0 0.26459,-0.11906 0.26459,-0.26458 z m 0.20401,-1.0089 c 0.0645,-0.19335 -0.0565,-0.25248 -0.3142,-0.1536 -0.23044,0.0884 -0.41898,0.27703 -0.41898,0.41911 0,0.34776 0.60134,0.12999 0.73318,-0.26551 z m -7.61235,-0.31402 c 0,-0.14552 -0.11906,-0.26458 -0.26458,-0.26458 -0.14552,0 -0.26458,0.11906 -0.26458,0.26458 0,0.14552 0.11906,0.26459 0.26458,0.26459 0.14552,0 0.26458,-0.11907 0.26458,-0.26459 z m 0,-0.79375 c 0,-0.14552 -0.14181,-0.26458 -0.31515,-0.26458 -0.17333,0 -0.084,-0.17481 0.19844,-0.38846 0.48959,-0.37031 0.4765,-0.39032 -0.28016,-0.42821 -0.43656,-0.0219 -0.87114,-0.0296 -0.96572,-0.0172 -0.33555,0.0439 -0.48636,-1.25653 -0.22534,-1.94308 0.35009,-0.92081 0.33512,-1.10825 -0.10191,-1.27595 -0.2425,-0.0931 -0.3308,0.01 -0.26039,0.30242 0.0586,0.24378 -0.004,0.80041 -0.13949,1.23698 -0.23463,0.75694 -0.24787,0.76308 -0.28555,0.13229 l -0.0395,-0.66146 -0.26214,0.65708 c -0.31211,0.78234 0.0805,1.85646 0.67858,1.85646 0.26587,0 0.33715,0.15077 0.21891,0.46302 -0.16698,0.44097 -0.15309,0.44097 0.29179,0 0.60918,-0.60384 0.7683,-0.5851 0.56161,0.0661 -0.13099,0.41269 -0.0476,0.52917 0.37904,0.52917 0.30085,0 0.547,-0.11906 0.547,-0.26458 z m 1.54173,-1.17862 c -0.0595,-0.27179 -0.20497,-0.3209 -0.46638,-0.15749 -0.326,0.20378 -0.32737,0.30069 -0.01,0.6835 0.3854,0.46439 0.63306,0.19074 0.47605,-0.52601 z m 7.49651,97.354675 c -0.0704,-2.46202 -0.64651,-5.83414 -1.22042,-7.14375 -0.25509,-0.58209 -0.80913,-2.10677 -1.23122,-3.38818 -0.42208,-1.281421 -0.95442,-2.691471 -1.18297,-3.133451 -0.22856,-0.44198 -0.3572,-0.86196 -0.28587,-0.93329 0.18198,-0.18197 1.17557,2.10048 1.80554,4.147631 0.29107,0.94588 0.80273,2.3151 1.13702,3.0427 0.68595,1.49305 1.31422,5.86283 1.14121,7.9375 -0.098,1.17503 -0.11623,1.11588 -0.16329,-0.52916 z m -12.21324,-18.653131 -0.66145,-0.21184 0.71199,-0.0264 c 0.39159,-0.0145 0.78557,0.0927 0.87551,0.23821 0.18588,0.30076 0.0131,0.30076 -0.92605,0 z m 13.22917,-2.38579 c 0.50932,-0.45328 1.9976,-1.49241 3.30729,-2.30919 2.5841,-1.611564 10.94823,-5.743954 11.17236,-5.519824 0.0758,0.0758 -0.56146,0.45145 -1.4162,0.83472 -4.78708,2.14654 -10.04618,5.012094 -11.87282,6.469214 -1.44295,1.15104 -2.33706,1.54535 -1.19063,0.52508 z m 15.08125,-8.197554 c 0.21828,-0.14106 0.51594,-0.25648 0.66146,-0.25648 0.14552,0 0.086,0.11542 -0.13229,0.25648 -0.21828,0.14107 -0.51594,0.25648 -0.66146,0.25648 -0.14552,0 -0.086,-0.11541 0.13229,-0.25648 z m -46.08767,-4.93414 c -0.10449,-1.22836 -0.86059,-1.78853 -1.41206,-1.04615 -0.20509,0.2761 -0.31016,0.60352 -0.23347,0.72761 0.0767,0.12408 0.0252,0.2256 -0.11438,0.2256 -0.42666,0 -0.9059,-2.57872 -0.71537,-3.84929 0.28357,-1.89098 0.0886,-2.17838 -1.38249,-2.03805 l -1.25143,0.11937 -0.007,-1.2125 c -0.006,-1.10231 0.0228,-1.15881 0.31914,-0.62174 0.1793,0.32491 0.26733,0.78756 0.19562,1.02809 -0.11182,0.37512 0.004,0.40708 0.81266,0.22465 1.44011,-0.32479 1.82834,0.21092 1.6371,2.25896 -0.20899,2.23799 -0.0389,2.80161 0.75458,2.49994 0.93419,-0.35517 1.97631,0.56343 1.97631,1.74207 0,1.21216 -0.47534,1.16412 -0.57934,-0.0585 z m 31.271,-3.96796 c 0,-0.24413 1.29096,-4.13255 1.73649,-5.23036 0.14465,-0.35644 0.11384,-0.44976 -0.10402,-0.31512 -0.39347,0.24318 -0.38519,0.003 0.0423,-1.22404 0.42669,-1.22508 0.81775,-1.66475 0.55714,-0.62639 -0.13138,0.52342 -0.10163,0.71043 0.0938,0.58966 0.32621,-0.20161 0.28695,-0.0624 -1.14662,4.06669 -0.94283,2.71559 -1.17904,3.26444 -1.17904,2.73956 z m -26.85667,-0.8891 c -0.65225,-0.72073 -0.31492,-0.97623 0.37629,-0.28501 0.30317,0.30317 0.55122,0.61075 0.55122,0.68351 0,0.30267 -0.47933,0.0967 -0.92751,-0.3985 z m 19.53012,-1.45359 c -0.16136,-0.87312 -0.2536,-1.62928 -0.20497,-1.68035 0.17422,-0.18296 0.68188,2.13003 0.59108,2.69303 -0.0512,0.31737 -0.22412,-0.13619 -0.38611,-1.01268 z m 7.34034,0.47295 c -0.0177,-0.41111 1.06549,-3.31833 1.18995,-3.19387 0.0515,0.0515 -0.19201,0.86344 -0.54122,1.8042 -0.34922,0.94076 -0.64115,1.56611 -0.64873,1.38967 z m -8.06906,-3.20385 c -0.10844,-0.48334 -0.1321,-0.94388 -0.0526,-1.0234 0.19908,-0.19908 0.51449,1.13749 0.36818,1.56014 -0.0651,0.18814 -0.20716,-0.0534 -0.3156,-0.53674 z m -28.06464,-0.2035 c 0.1113,-0.56847 0.0355,-0.92112 -0.24853,-1.15688 -0.22475,-0.18652 -0.40864,-0.50315 -0.40864,-0.70361 0,-0.20047 -0.17859,-0.36448 -0.39687,-0.36448 -0.50388,0 -2.51354,-1.99236 -2.51354,-2.4919 0,-0.20638 -0.0679,-0.55219 -0.1509,-0.76845 -0.11692,-0.30471 0.0766,-0.39546 0.8599,-0.40316 3.25705,-0.032 4.21146,-0.10697 4.50902,-0.35391 0.4175,-0.3465 0.60085,0.0883 0.83042,1.96916 0.16348,1.33942 0.19947,1.38969 1.05353,1.47153 0.48635,0.0466 1.29655,-0.11092 1.80045,-0.35003 0.97217,-0.46132 2.66904,-0.55747 4.53436,-0.25691 0.62351,0.10047 1.6653,0.10294 2.3151,0.005 l 1.18145,-0.17717 0.0186,-1.24056 c 0.014,-0.93646 0.0743,-1.11084 0.24598,-0.71139 0.12507,0.29104 0.21575,1.42214 0.20151,2.51354 -0.0142,1.09141 -0.073,1.53143 -0.13052,0.97783 l -0.10464,-1.00655 -1.82431,0.17976 c -1.37744,0.13573 -2.07889,0.0779 -2.86362,-0.23609 -0.57163,-0.22872 -1.10843,-0.34673 -1.19291,-0.26226 -0.0845,0.0845 -0.44172,0.18522 -0.79388,0.22388 -0.35215,0.0387 -1.05848,0.26874 -1.56962,0.51129 -0.51114,0.24255 -1.36983,0.40333 -1.90821,0.3573 -0.87791,-0.0751 -1.01667,-0.19285 -1.34547,-1.14203 -0.20163,-0.58209 -0.3684,-1.31007 -0.37059,-1.61774 -0.004,-0.52875 -0.10912,-0.55287 -1.92221,-0.44011 -1.05503,0.0656 -2.19251,0.12118 -2.52773,0.12349 -0.87573,0.006 -0.6452,0.7213 0.47904,1.48632 0.50831,0.34591 0.89444,0.73705 0.85806,0.86921 -0.0364,0.13215 0.16326,0.24029 0.44364,0.24029 0.93908,0 1.69299,2.26328 1.05761,3.175 -0.20759,0.29787 -0.23664,0.19288 -0.11648,-0.42087 z m 15.41627,-0.19609 c -0.10914,-0.26656 -0.19844,-0.94896 -0.19844,-1.51644 0,-1.21991 -0.46312,-4.29252 -0.95288,-6.32201 -0.19166,-0.79417 -0.29659,-1.49582 -0.23319,-1.55923 0.12712,-0.12711 0.1466,-0.0702 0.75632,2.20942 0.23353,0.87313 0.45906,2.11984 0.50117,2.77048 0.0697,1.07677 0.15205,1.20462 0.9173,1.42409 0.82777,0.2374 0.83468,0.25281 0.44838,0.99984 -0.2158,0.41729 -0.50082,0.75872 -0.63338,0.75872 -0.13256,0 -0.27833,0.38695 -0.32393,0.85989 -0.065,0.67414 -0.12578,0.7552 -0.28135,0.37524 z m 0.85989,-2.16117 c 0,-0.21828 -0.11906,-0.39688 -0.26458,-0.39688 -0.14552,0 -0.26458,0.1786 -0.26458,0.39688 0,0.21828 0.11906,0.39687 0.26458,0.39687 0.14552,0 0.26458,-0.17859 0.26458,-0.39687 z m 10.67459,-1.5287 c -1.65911,-5.37539 -2.2552,-7.58924 -2.13303,-7.92196 0.0685,-0.18641 0.20511,0.0183 0.30368,0.45482 0.2401,1.06332 1.3268,4.79039 2.17187,7.44888 0.37715,1.18646 0.6422,2.28449 0.589,2.44005 -0.0532,0.15557 -0.47238,-0.93424 -0.93152,-2.42179 z m 11.8231,1.79328 c 0,-0.14552 0.11542,-0.44318 0.25648,-0.66146 0.14106,-0.21828 0.25648,-0.27781 0.25648,-0.13229 0,0.14552 -0.11542,0.44318 -0.25648,0.66146 -0.14106,0.21828 -0.25648,0.27781 -0.25648,0.13229 z m 0.042,-1.71269 c 0.16908,-0.50541 0.3562,-0.77256 0.41584,-0.59366 0.0596,0.1789 0.21732,0.25797 0.35041,0.17572 0.13309,-0.0823 0.24198,0.029 0.24198,0.24732 0,0.21828 -0.11906,0.47046 -0.26458,0.56039 -0.14552,0.0899 -0.26458,0.0147 -0.26458,-0.16724 0,-0.18263 -0.17612,-0.10075 -0.39324,0.18282 -0.35689,0.46611 -0.36482,0.42863 -0.0858,-0.40535 z m 0.48748,-1.34325 c 0.005,-0.211 0.19554,-0.62177 0.42424,-0.91281 0.40394,-0.51404 0.41041,-0.51026 0.22643,0.13229 -0.23118,0.8074 -0.66261,1.32493 -0.65067,0.78052 z m -26.18128,-1.46403 c 0.0127,-0.30822 0.0754,-0.37091 0.15986,-0.15985 0.0764,0.191 0.067,0.4192 -0.0209,0.50712 -0.0879,0.0879 -0.15046,-0.0684 -0.13897,-0.34727 z m 26.96661,-0.34359 c 0,-0.14552 0.11907,-0.33817 0.26459,-0.42811 0.14552,-0.0899 0.26458,-0.0445 0.26458,0.10107 0,0.14552 -0.11906,0.33816 -0.26458,0.4281 -0.14552,0.0899 -0.26459,0.0445 -0.26459,-0.10106 z m -27.33779,-0.95727 c -0.33496,-1.30149 -1.79091,-4.70366 -2.37778,-5.55625 -0.99014,-1.43845 -3.09276,-3.88818 -3.09276,-3.60332 0,0.15368 -0.18303,0.20918 -0.40673,0.12334 -0.2237,-0.0858 -0.62419,0.0407 -0.88997,0.28125 -0.46069,0.41692 -0.49745,0.36513 -0.78765,-1.10996 -0.16743,-0.85101 -0.52837,-1.98656 -0.80208,-2.52344 -0.27372,-0.53688 -0.39153,-1.04174 -0.2618,-1.12192 0.12973,-0.0802 0.0479,-0.50931 -0.18188,-0.95363 -0.22977,-0.44432 -0.28549,-0.72611 -0.12382,-0.62619 0.16167,0.0999 0.43939,0.52749 0.61717,0.95017 0.23765,0.56506 0.42195,0.70625 0.69617,0.53335 0.30892,-0.19478 0.31611,-0.37237 0.0419,-1.03433 -0.18207,-0.43955 -0.49872,-0.86352 -0.70368,-0.94217 -0.20496,-0.0786 -0.37265,-0.27186 -0.37265,-0.42936 0,-0.15749 0.39819,0.0174 0.88487,0.38858 0.88667,0.67629 1.49638,0.86334 1.49638,0.45906 0,-0.21717 1.89136,-1.37164 2.24714,-1.37164 0.1049,0 0.11557,0.19586 0.0237,0.43524 -0.14733,0.38395 0.0156,0.41615 1.38267,0.27326 0.95241,-0.0995 1.65719,-0.0545 1.82864,0.11698 0.19555,0.19556 0.33536,0.1877 0.4676,-0.0263 0.29442,-0.47637 -0.69766,-1.08666 -1.52719,-0.93948 l -0.73681,0.13074 0.70374,-0.60533 c 0.44017,-0.37862 0.70373,-0.8741 0.70373,-1.32297 0,-0.3947 0.10418,-0.78203 0.23151,-0.86072 0.29687,-0.18347 0.29464,0.33299 -0.006,1.38106 -0.21289,0.74232 -0.165,0.86438 0.46302,1.18011 0.38527,0.19369 0.73989,0.37567 0.78806,0.40441 0.0482,0.0287 -0.0377,0.28633 -0.19081,0.57243 -0.23283,0.43504 -0.48536,0.50095 -1.54279,0.40268 l -1.2644,-0.11751 1.15338,0.54603 c 0.63435,0.30031 1.36037,0.54602 1.61338,0.54602 0.77258,0 0.65115,1.45216 -0.15203,1.81812 -0.81123,0.36962 -1.86748,0.38682 -2.08556,0.034 -0.0998,-0.16142 0.30073,-0.26459 1.0271,-0.26459 2.03484,0 1.75164,-0.61604 -0.88787,-1.93136 -1.41499,-0.70512 -3.44652,-0.9703 -3.44652,-0.44989 0,0.14552 0.15359,0.26459 0.34132,0.26459 0.18772,0 0.85112,0.46136 1.47422,1.02526 1.07412,0.97207 1.09833,1.02526 0.4666,1.02526 -0.36646,0 -0.85977,0.19347 -1.09624,0.42995 -0.38485,0.38484 -0.38634,0.42994 -0.0142,0.42994 0.22868,0 0.41577,0.11907 0.41577,0.26459 0,0.14552 -0.13793,0.26458 -0.30652,0.26458 -0.16859,0 0.42201,0.75869 1.31244,1.68598 1.50659,1.56896 1.96447,2.34322 3.58492,6.06206 0.49009,1.12473 0.57006,1.89089 0.17166,1.64467 -0.14552,-0.0899 -0.26458,-0.37847 -0.26458,-0.64117 0,-0.26271 -0.53703,-1.55843 -1.19341,-2.87938 -1.31508,-2.64658 -3.3841,-5.13372 -4.32855,-5.2033 -0.32984,-0.0243 -0.89425,-0.3931 -1.25423,-0.81954 l -0.65451,-0.77536 0.54121,1.11563 c 0.29767,0.6136 0.76542,1.23562 1.03944,1.38228 0.60998,0.32644 2.96019,3.50823 3.52935,4.77813 1.39737,3.11779 2.06823,4.93824 1.9944,5.41206 -0.067,0.4303 -0.12612,0.37858 -0.28858,-0.25269 z m -6.15657,-10.04472 c -0.0861,-0.29624 -0.38586,-0.99295 -0.66614,-1.54824 -0.28027,-0.55529 -0.44086,-1.12084 -0.35685,-1.25677 0.084,-0.13593 -0.0258,-0.24715 -0.24412,-0.24715 -0.65439,0 -0.67778,0.33786 -0.13866,2.00259 0.39945,1.23342 0.63138,1.58819 1.03832,1.58819 0.40192,0 0.48752,-0.12547 0.36745,-0.53862 z m 1.22257,-1.85266 c -0.29466,-0.35504 0.33797,-1.27814 1.03085,-1.50416 0.6174,-0.2014 -1.25363,-1.36476 -2.15377,-1.33917 -0.97138,0.0276 -1.01706,0.0705 -0.83143,0.78038 0.09,0.34421 0.43396,0.63129 0.87145,0.72738 0.39751,0.0873 0.72275,0.33396 0.72275,0.54812 0,0.26343 -0.16416,0.33727 -0.50752,0.22829 -0.48483,-0.15388 -0.48788,-0.13111 -0.0682,0.50937 0.26168,0.39936 0.59442,0.61092 0.82295,0.52322 0.27107,-0.10402 0.30421,-0.24296 0.11294,-0.47343 z m 32.82325,11.87188 c -0.0205,-0.26666 0.0998,-0.56739 0.99508,-2.48805 l 0.30834,-0.66145 -0.16291,0.66145 c -0.2229,0.90507 -1.11294,2.84672 -1.14051,2.48805 z m 1.30904,-3.42732 c -0.005,-0.15279 0.0963,-0.39092 0.22421,-0.52916 0.12794,-0.13825 0.37793,-0.70582 0.55553,-1.26127 0.39891,-1.24759 0.61557,-1.15701 0.26546,0.11097 -0.26075,0.94437 -1.03002,2.18046 -1.0452,1.67946 z m -17.98454,-2.77349 c -0.31553,-1.03884 -0.53159,-2.01513 -0.48012,-2.16953 0.0515,-0.15441 0.35112,0.65406 0.6659,1.7966 0.72126,2.61797 0.58141,2.89872 -0.18578,0.37293 z m 19.30223,-0.33267 c -0.005,-0.35328 1.0844,-2.36351 1.21209,-2.23582 0.066,0.066 -0.17899,0.6431 -0.54444,1.28241 -0.36545,0.63931 -0.6659,1.06835 -0.66765,0.95341 z m -42.1815,-2.23842 c 0.22556,-1.51231 0.93465,-3.24735 1.52862,-3.74031 0.58014,-0.48147 0.54547,-0.25082 -0.13588,0.90398 -0.3129,0.53033 -0.65089,1.41253 -0.75109,1.96045 -0.17439,0.95369 -0.15076,0.99711 0.55365,1.01714 0.53458,0.0152 0.69608,-0.0827 0.59049,-0.35783 -0.0799,-0.20831 -0.0379,-0.37874 0.0935,-0.37874 0.13135,0 0.26555,0.397 0.29823,0.88222 0.0474,0.70372 -0.0363,0.87516 -0.4136,0.84737 -0.26015,-0.0192 -0.61152,-0.12045 -0.7808,-0.22508 -0.16929,-0.10462 -0.38258,-0.0692 -0.47399,0.0787 -0.42781,0.69222 -0.68519,0.19279 -0.5091,-0.98787 z m -2.574,-0.24306 c -0.28159,-0.0748 -0.38717,-0.29694 -0.29987,-0.63076 0.10817,-0.41365 -0.002,-0.51524 -0.55758,-0.51524 -0.86507,0 -0.90653,-0.41804 -0.0625,-0.62988 0.87164,-0.21877 1.07523,-1.1411 0.33848,-1.53347 -0.3143,-0.16738 -0.69872,-0.4769 -0.85428,-0.68781 -0.24296,-0.3294 -0.4388,-0.3039 -1.38906,0.18089 l -1.10623,0.56436 v -0.78598 c 0,-0.46203 -0.18383,-0.88886 -0.446,-1.03558 -0.37353,-0.20903 -0.21157,-0.39955 0.99676,-1.17251 0.79351,-0.50761 1.66895,-0.96675 1.94542,-1.02033 0.9061,-0.17557 0.72307,-0.68131 -0.59738,-1.6506 -1.83045,-1.34368 -2.04699,-1.6437 -1.5471,-2.14359 0.22234,-0.22234 0.71268,-0.40425 1.08965,-0.40425 0.59276,0 0.66369,-0.0865 0.52484,-0.63972 -0.2401,-0.9566 0.69473,-1.39742 1.37332,-0.6476 0.27263,0.30126 0.83416,0.72277 1.24783,0.93669 0.69929,0.36161 0.74223,0.35506 0.61101,-0.0932 -0.13734,-0.46924 -0.25204,-2.00763 -0.19808,-2.65669 0.0147,-0.17733 0.19336,-0.25851 0.39692,-0.1804 0.20356,0.0781 0.44992,0.0129 0.54745,-0.14491 0.27393,-0.44322 0.66994,-0.055 0.66994,0.6568 0,0.57926 -0.0647,0.61472 -0.68839,0.37757 -0.68361,-0.2599 -0.6876,-0.25387 -0.57418,0.86645 0.0628,0.62049 0.20727,1.33788 0.32098,1.59419 0.16683,0.37603 0.11166,0.43234 -0.28572,0.2916 -0.27087,-0.0959 -0.87149,-0.45447 -1.33472,-0.79675 -0.91309,-0.67467 -1.6713,-0.81203 -1.6713,-0.30276 0,0.17577 0.44648,0.78857 0.99218,1.36179 0.9831,1.03267 0.85264,1.06564 -0.50386,0.12734 -0.84746,-0.58619 -1.45349,-0.61675 -1.97085,-0.0994 -0.33881,0.33881 -0.19799,0.53673 1.14338,1.60702 1.93414,1.54327 2.02935,1.57959 2.68028,1.02225 0.42044,-0.36 0.48004,-0.57138 0.27114,-0.9617 -0.33171,-0.61981 0.21184,-1.45236 0.65735,-1.00685 0.15168,0.15169 0.48308,0.2758 0.73643,0.2758 0.25335,0 0.5444,0.13554 0.64679,0.3012 0.13325,0.21561 -0.0867,0.25001 -0.77415,0.12105 -0.78075,-0.14647 -0.93248,-0.10767 -0.81154,0.20751 0.0818,0.21321 0.31614,0.45189 0.52072,0.53039 0.20457,0.0785 0.30631,0.31379 0.22609,0.52286 -0.0802,0.20907 -0.0187,0.45873 0.13675,0.5548 0.15544,0.0961 0.28262,-0.0109 0.28262,-0.23782 0,-0.45177 0.37507,-0.49836 1.19062,-0.14791 0.51466,0.22116 0.51362,0.2279 -0.0378,0.24599 -0.83942,0.0275 -1.05046,0.81235 -0.21844,0.81235 0.64754,0 0.95763,0.51926 0.32243,0.53991 -0.1819,0.006 0.0736,0.3565 0.56772,0.77907 0.68126,0.58257 0.76416,0.73319 0.34295,0.62304 -0.30553,-0.0799 -1.16477,-0.78947 -1.90942,-1.57683 -1.43023,-1.51226 -1.98966,-1.65139 -1.54821,-0.38503 0.3033,0.87003 0.81735,1.39251 1.95224,1.98426 0.69265,0.36116 0.7197,0.41377 0.21346,0.4152 -0.31883,8.9e-4 -0.65328,-0.11744 -0.74322,-0.26296 -0.20695,-0.33484 -1.71979,-0.34959 -1.71979,-0.0168 0,0.1363 0.38695,0.29584 0.85989,0.35453 0.47295,0.0587 -0.0699,0.12577 -1.20624,0.14906 -2.13265,0.0437 -2.54297,0.40258 -0.82811,0.72429 0.75616,0.14186 0.86759,0.24083 0.61447,0.54581 -0.50929,0.61366 -0.0571,0.7122 0.53794,0.11721 0.3164,-0.31641 0.86116,-0.53814 1.27882,-0.52053 0.53151,0.0224 0.58987,0.0658 0.21655,0.16095 -0.28107,0.0716 -1.0981,0.53407 -1.81562,1.02764 -0.98552,0.67791 -1.1679,0.89739 -0.74572,0.89739 0.35558,0 0.55911,0.16841 0.55957,0.46302 4.9e-4,0.31872 0.32681,0.092 1.04705,-0.7276 0.57548,-0.65485 1.05141,-1.09031 1.05762,-0.96769 0.0134,0.26408 -1.91325,2.80602 -2.10539,2.77781 -0.0728,-0.0107 -0.32786,-0.0714 -0.5669,-0.13495 z m -0.61636,-4.69904 c 0.58896,0.11049 0.91868,0.0695 0.91868,-0.11412 0,-0.15755 0.35828,-0.3793 0.79617,-0.49277 l 0.79618,-0.20631 -0.59774,-0.85502 c -0.44855,-0.64161 -0.79585,-0.8547 -1.39149,-0.85377 -1.38158,0.002 -4.28445,1.60537 -3.68487,2.0351 0.15614,0.11191 0.36236,0.41599 0.45827,0.67574 0.16222,0.43934 0.23059,0.44321 0.98026,0.0555 0.53805,-0.27824 1.11118,-0.35945 1.72454,-0.24439 z m -0.20801,-0.4487 c -0.64022,-0.35829 -0.60213,-1.28993 0.0527,-1.28993 0.28246,0 0.58714,0.11906 0.67708,0.26459 0.0899,0.14552 0.48391,0.28079 0.87551,0.30061 0.60322,0.0305 0.62313,0.0533 0.13032,0.14891 -0.31991,0.0621 -0.82593,-0.0179 -1.12448,-0.17764 -0.43151,-0.23093 -0.54281,-0.21173 -0.54281,0.0936 0,0.21128 0.14882,0.43729 0.33073,0.50226 0.1819,0.065 0.2702,0.18502 0.19623,0.26678 -0.074,0.0818 -0.34186,0.0326 -0.59531,-0.10921 z m 5.4413,3.0757 c 0.14985,-0.65485 0.37948,-1.19063 0.51029,-1.19063 0.13081,0 0.17594,0.20836 0.10028,0.46302 -0.0757,0.25466 -0.21565,0.79045 -0.3111,1.19063 -0.0954,0.40018 -0.26317,0.7276 -0.37273,0.7276 -0.10956,0 -0.0766,-0.53578 0.0733,-1.19062 z m 2.45451,-5.50727 c -0.44736,-0.32711 -0.43458,-0.37487 0.21401,-0.79985 0.73635,-0.48247 0.93192,-1.23351 0.32121,-1.23351 -0.20271,0 -0.44364,0.19564 -0.53539,0.43475 -0.0918,0.23911 -0.22274,0.37883 -0.29107,0.3105 -0.16503,-0.16503 0.79008,-2.01867 1.49808,-2.9074 0.32323,-0.40575 0.4934,-0.88877 0.39941,-1.1337 -0.14935,-0.38921 -0.22819,-0.38671 -0.89613,0.0284 -1.2543,0.7796 -1.6462,1.45028 -1.65253,2.82812 -0.005,0.99994 -0.13632,1.38932 -0.60119,1.77714 -0.65325,0.54496 -0.99219,0.64078 -0.99219,0.28051 0,-0.12855 0.25359,-0.30004 0.56353,-0.38109 0.36449,-0.0953 0.50992,-0.28708 0.41174,-0.54293 -0.0835,-0.21756 -0.01,-0.44649 0.16407,-0.50873 0.17373,-0.0622 0.24781,-0.1876 0.16463,-0.27858 -0.0832,-0.091 -0.55091,0.12946 -1.03939,0.48985 -0.48848,0.36039 -0.95521,0.58818 -1.03718,0.50622 -0.082,-0.082 0.0718,-0.27261 0.34164,-0.42363 0.26987,-0.15103 0.71536,-0.49929 0.98998,-0.77391 0.27462,-0.27462 0.5115,-0.41001 0.52639,-0.30087 0.0834,0.61085 0.39572,-1.59593 0.38386,-2.71198 -0.0106,-0.99329 -0.11295,-1.32292 -0.41094,-1.32292 -0.26454,0 -0.41901,0.30879 -0.46325,0.92604 -0.0365,0.50933 -0.15983,1.46183 -0.27406,2.11667 l -0.20768,1.19063 -0.18992,-0.89778 c -0.11269,-0.5327 -0.0758,-1.03533 0.0908,-1.23604 0.20027,-0.24131 0.18231,-0.49586 -0.0627,-0.88816 -0.46628,-0.74662 -0.62204,-0.6955 -0.9446,0.31 -0.21208,0.66111 -0.28209,0.72626 -0.30285,0.2818 -0.0149,-0.31794 0.094,-0.89643 0.24195,-1.28552 0.20645,-0.54301 0.34959,-0.64053 0.61582,-0.41958 0.268,0.22241 0.48458,0.0428 0.95269,-0.79009 0.50291,-0.8948 0.55543,-1.18861 0.3091,-1.72923 -0.42996,-0.94366 -0.82555,-0.51339 -0.71633,0.77913 0.0517,0.61213 0.0405,0.90461 -0.025,0.64994 -0.13944,-0.54212 -0.11671,-0.53742 -0.9911,-0.20498 -0.39345,0.14959 -0.67869,0.15708 -0.67869,0.0178 0,-0.13211 0.23785,-0.3157 0.52856,-0.40796 0.2907,-0.0923 0.60004,-0.4526 0.68741,-0.80073 0.0874,-0.34813 0.32386,-0.76991 0.52553,-0.93727 0.29179,-0.24216 0.46206,-0.13667 0.83393,0.51664 0.30459,0.53511 0.67455,0.82152 1.06259,0.82261 0.4847,0.001 0.59532,0.14916 0.59532,0.79543 0,0.43656 -0.12133,0.79375 -0.26963,0.79375 -0.15548,0 -0.19934,-0.28003 -0.10361,-0.66146 0.16691,-0.665 -0.0255,-0.79641 -0.75589,-0.51616 -0.32401,0.12434 -0.31758,0.27797 0.0445,1.0646 0.3321,0.72147 0.55127,0.89737 1.01847,0.81743 0.40042,-0.0685 0.59532,0.0295 0.59532,0.29933 0,0.33404 0.0876,0.32187 0.52365,-0.0727 0.4981,-0.45078 0.53236,-0.45121 0.70214,-0.009 0.16093,0.41939 0.22595,0.40341 0.66109,-0.16243 0.31332,-0.40742 0.48466,-0.49298 0.48848,-0.24391 0.005,0.29839 0.0764,0.31309 0.32339,0.0662 0.43839,-0.43839 1.00541,-0.39817 1.00541,0.0713 0,0.21385 -0.24458,0.82428 -0.54351,1.3565 l -0.54351,0.96768 0.62367,-0.11922 c 0.34301,-0.0656 0.77436,0.0421 0.95855,0.23928 0.52321,0.56009 -1.22462,2.19401 -2.34696,2.19401 -0.59922,0 -1.06285,0.23177 -1.58782,0.79375 l -0.74147,0.79375 h 0.90645 c 0.72343,0 0.95723,-0.13355 1.15794,-0.66145 0.1464,-0.38506 0.46144,-0.66146 0.75393,-0.66146 0.27635,0 1.02231,-0.18342 1.65768,-0.40759 0.63538,-0.22417 1.0373,-0.29376 0.89316,-0.15464 -0.14413,0.13912 -0.85738,0.42368 -1.58498,0.63235 -0.96976,0.27812 -1.34443,0.52324 -1.40351,0.91821 -0.0541,0.36157 -0.34781,0.59224 -0.89297,0.70128 -1.08423,0.21684 -1.10275,0.21476 -1.65002,-0.18542 z m 3.83759,-2.71598 c 0.50848,-0.46017 0.40487,-1.16946 -0.17083,-1.16946 -0.19549,0 -0.45064,0.14883 -0.56701,0.33073 -0.21986,0.34366 -1.95188,1.05988 -2.13068,0.88107 -0.056,-0.056 0.23919,-0.30341 0.6561,-0.54968 0.7734,-0.45686 1.7473,-1.69531 2.08118,-2.6465 0.14694,-0.41863 0.11561,-0.4644 -0.15003,-0.21911 -0.18467,0.17053 -0.49388,0.24938 -0.68714,0.17522 -0.22044,-0.0846 -0.50892,0.2422 -0.77414,0.87696 -0.23251,0.55649 -0.66767,1.2725 -0.96701,1.59113 -0.29935,0.31864 -0.47728,0.68772 -0.39541,0.82019 0.2698,0.43654 2.59755,0.36866 3.10497,-0.0906 z m -3.99213,-2.78819 c 0,-0.14552 -0.11906,-0.191 -0.26459,-0.10106 -0.14552,0.0899 -0.26458,0.28258 -0.26458,0.4281 0,0.14552 0.11906,0.191 0.26458,0.10106 0.14553,-0.0899 0.26459,-0.28258 0.26459,-0.4281 z m 3.21896,5.35566 c -0.28152,-0.17845 -0.26376,-0.25792 0.0878,-0.39282 0.69729,-0.26758 0.92186,-0.20007 0.75768,0.22776 -0.17299,0.45082 -0.34248,0.48391 -0.84547,0.16506 z m -7.27591,-2.85499 c -0.097,-0.097 -0.16699,-0.42443 -0.1555,-0.7276 0.0115,-0.30317 0.0812,-0.40165 0.15489,-0.21884 0.0737,0.18281 0.2429,0.26508 0.37599,0.18282 0.13309,-0.0823 0.24199,0.0956 0.24199,0.39523 0,0.54066 -0.27876,0.707 -0.61737,0.36839 z m 16.75695,-14.22129 c 0,-0.27892 0.79696,-1.03314 0.94026,-0.88983 0.0667,0.0667 -0.11754,0.33747 -0.40947,0.60167 -0.29194,0.2642 -0.53079,0.39387 -0.53079,0.28816 z m 3.99531,-0.86997 c 0.19265,-0.32081 0.40723,-0.52633 0.47684,-0.45672 0.0696,0.0696 -0.088,0.33208 -0.35028,0.58328 -0.4556,0.43637 -0.46124,0.43073 -0.12656,-0.12656 z m 0.78808,-0.4971 c 0.0127,-0.30823 0.0754,-0.37092 0.15985,-0.15986 0.0764,0.191 0.067,0.4192 -0.0209,0.50712 -0.0879,0.0879 -0.15045,-0.0683 -0.13897,-0.34726 z m 11.2239,-3.81441 c 0.16382,-0.51617 -0.0892,-0.63023 -1.34699,-0.60726 -0.20848,0.004 -0.20848,-0.16776 0,-0.61772 0.15876,-0.34264 0.38498,-0.62391 0.50271,-0.62504 0.11773,-0.001 0.14047,0.117 0.0505,0.26252 -0.0899,0.14552 0.0348,0.26458 0.27727,0.26458 0.28312,0 0.38632,-0.14197 0.28851,-0.39688 -0.0838,-0.21828 -0.0408,-0.39687 0.0955,-0.39687 0.1363,0 0.42545,-0.32742 0.64256,-0.7276 0.51324,-0.94605 0.52332,-0.65241 0.019,0.5545 -0.53151,1.27208 -0.5181,1.86373 0.0374,1.65056 0.35804,-0.13739 0.37727,-0.0979 0.10951,0.22468 -0.17863,0.21524 -0.24798,0.51562 -0.1541,0.66752 0.0939,0.15189 -0.023,0.27617 -0.25963,0.27617 -0.30992,0 -0.38333,-0.14806 -0.26237,-0.52916 z m -7.38324,-1.36257 c -0.49448,-0.47044 -0.49074,-0.4929 0.19642,-1.18007 0.55106,-0.55105 0.7791,-0.63527 1.06892,-0.39474 0.29537,0.24514 0.40281,0.16874 0.54187,-0.38531 0.0954,-0.38008 0.0957,-0.94883 7.3e-4,-1.26388 -0.12922,-0.42853 -0.0955,-0.49971 0.13401,-0.28259 0.34913,0.33034 0.49651,2.3615 0.19335,2.66467 -0.11005,0.11004 -0.4328,0.0547 -0.71722,-0.12288 -0.31055,-0.19394 -0.51713,-0.21636 -0.51713,-0.0561 0,0.14676 0.14287,0.26683 0.3175,0.26683 0.23466,0 0.24005,0.0774 0.0207,0.29682 -0.16326,0.16326 -0.24148,0.44107 -0.17383,0.61736 0.18614,0.48507 -0.49472,0.38276 -1.0653,-0.16008 z m 3.28213,-1.81807 c -0.26342,-0.16652 -0.28564,-0.25221 -0.0661,-0.2549 0.51607,-0.006 0.38821,-0.5319 -0.13229,-0.54381 -0.31645,-0.007 -0.21564,-0.14448 0.3185,-0.43357 0.54748,-0.29631 0.81176,-0.33226 0.88249,-0.12005 0.0555,0.16661 0.20987,0.23563 0.34297,0.15338 0.13309,-0.0823 0.24198,0.15512 0.24198,0.52751 0,0.70891 -0.36089,0.89883 -0.69148,0.36391 -0.13696,-0.2216 -0.23825,-0.18575 -0.34641,0.1226 -0.11006,0.31375 -0.26397,0.36553 -0.54967,0.18493 z m -0.79368,-1.55131 c 0,-0.23754 0.79504,-0.64662 0.95188,-0.48979 0.0453,0.0453 -0.15033,0.22772 -0.43475,0.40535 -0.28442,0.17762 -0.51713,0.21562 -0.51713,0.0844 z m -9.53713,-0.97121 c -0.3039,-0.36617 -0.26363,-0.37601 0.36559,-0.0893 0.38891,0.1772 0.7959,0.227 0.90443,0.11068 0.10852,-0.11632 0.0783,-0.25666 -0.0673,-0.31186 -0.78848,-0.29911 -0.97357,-0.56742 -0.72453,-1.05031 0.33682,-0.65309 0.13629,-1.15812 -0.45984,-1.15812 -0.26335,0 -0.54788,-0.18 -0.6323,-0.4 -0.13596,-0.35431 -0.0636,-0.35353 0.63315,0.007 0.77968,0.40319 0.78691,0.40029 0.81733,-0.32761 0.0187,-0.44749 0.078,-0.55351 0.1517,-0.27138 0.0666,0.25466 0.27628,0.46302 0.46607,0.46302 0.1898,0 0.4933,0.1786 0.67446,0.39688 0.37902,0.4567 -0.0108,0.54481 -0.4532,0.10243 -0.33621,-0.33621 -0.95862,-0.0634 -0.72346,0.31704 0.0852,0.13784 0.25328,0.18981 0.37354,0.11548 0.22339,-0.13806 0.49304,1.71821 0.32349,2.22686 -0.14166,0.42498 -1.26169,0.33629 -1.64917,-0.13059 z m 1.22614,-1.63769 c -0.28903,-0.28903 -0.48722,0.17062 -0.27971,0.64871 0.19676,0.45332 0.21103,0.45291 0.32066,-0.009 0.0631,-0.26605 0.0447,-0.55379 -0.041,-0.63941 z m 9.22233,-0.62044 c -0.0902,-0.1459 -0.51756,-0.20953 -0.94975,-0.14142 -0.67526,0.10642 -0.7394,0.0679 -0.45594,-0.27363 0.18733,-0.22572 0.59406,-0.34696 0.94128,-0.28059 0.33627,0.0643 0.6114,-2.5e-4 0.6114,-0.14341 0,-0.14316 0.17859,-0.11207 0.39688,0.0691 0.21828,0.18116 0.39687,0.42112 0.39687,0.53326 0,0.33259 -0.76285,0.52453 -0.94074,0.2367 z m -8.56506,-1.4671 c -0.3016,-0.38343 -0.53897,-0.82991 -0.52748,-0.99219 0.0127,-0.1797301 0.0731,-0.1657801 0.15434,0.0357 0.0734,0.1819 0.29794,0.33073 0.49897,0.33073 0.32133,0 0.9133,0.76046 0.9133,1.17323 0,0.37207 -0.53934,0.0879 -1.03913,-0.54745 z m 7.4016,0.30026 c -0.006,-0.39315 0.4658,-1.06514 0.63187,-0.89906 0.0792,0.0792 -0.0296,0.37337 -0.24178,0.65379 -0.21215,0.28042 -0.38769,0.39079 -0.39009,0.24527 z m -6.21507,-0.63702 c -0.0816,-0.13208 -0.0367,-0.51904 0.0999,-0.8599001 0.23227,-0.57968 0.24941,-0.56415 0.26509,0.2401501 0.017,0.86947 -0.0941,1.05806 -0.365,0.61975 z"
       id="path1" /></g></svg>
