<?xml version="1.0" encoding="UTF-8" standalone="no"?>
<!-- Created with Inkscape (http://www.inkscape.org/) -->

<svg
   width="210mm"
   height="297mm"
   viewBox="0 0 210 297"
   version="1.1"
   id="svg1"
   xml:space="preserve"
   inkscape:version="1.3 (0e150ed6c4, 2023-07-21)"
   sodipodi:docname="arrow_bend.svg"
   xmlns:inkscape="http://www.inkscape.org/namespaces/inkscape"
   xmlns:sodipodi="http://sodipodi.sourceforge.net/DTD/sodipodi-0.dtd"
   xmlns="http://www.w3.org/2000/svg"
   xmlns:svg="http://www.w3.org/2000/svg"><sodipodi:namedview
     id="namedview1"
     pagecolor="#505050"
     bordercolor="#eeeeee"
     borderopacity="1"
     inkscape:showpageshadow="0"
     inkscape:pageopacity="0"
     inkscape:pagecheckerboard="0"
     inkscape:deskcolor="#505050"
     inkscape:document-units="mm"
     inkscape:zoom="1.0378437"
     inkscape:cx="396.97692"
     inkscape:cy="561.25984"
     inkscape:window-width="2560"
     inkscape:window-height="1369"
     inkscape:window-x="2552"
     inkscape:window-y="-8"
     inkscape:window-maximized="1"
     inkscape:current-layer="layer1" /><defs
     id="defs1" /><g
     inkscape:label="Layer 1"
     inkscape:groupmode="layer"
     id="layer1"><path
       style="fill:#000000"
       d="M 64.273117,237.78815 C 60.393797,235.79532 50.979679,227.11671 46.85224,221.72833 35.136315,206.43318 29.113889,187.16286 29.735724,166.95958 c 0.261025,-8.4806 1.191385,-14.4938 3.483996,-22.5181 1.463409,-5.12203 2.242808,-7.31432 4.353424,-12.24531 1.919304,-4.48403 2.35945,-5.37385 4.971208,-10.05004 10.088825,-18.06341 26.969903,-35.686958 46.917347,-48.980893 1.809897,-1.206203 3.320371,-2.21557 3.356607,-2.243039 0.03624,-0.02747 -0.47964,-1.945139 -1.146394,-4.261489 -1.196645,-4.157232 -4.238082,-15.393654 -6.631827,-24.500923 -1.086466,-4.133578 -1.191747,-4.770863 -0.903229,-5.467407 0.430191,-1.038571 1.607477,-1.538127 2.745633,-1.165051 0.463567,0.151953 3.28363,1.431672 6.266807,2.84382 2.983178,1.412148 7.031304,3.314991 8.995834,4.22854 21.18541,9.851668 72.66743,36.06969 73.68801,37.526765 0.56918,0.812631 0.48676,1.905354 -0.19999,2.651229 -0.32742,0.355612 -1.84177,1.761236 -3.36523,3.123608 -10.52659,9.413559 -21.47877,20.65426 -32.31737,33.16871 -5.036,5.81467 -15.58978,19.28657 -18.09807,23.10221 -1.1815,1.79731 -2.91553,2.41368 -4.04517,1.43789 -0.29481,-0.25466 -1.24893,-2.12989 -2.12026,-4.16718 -0.87133,-2.0373 -2.6768,-6.20448 -4.01214,-9.26042 -1.33535,-3.05594 -3.35458,-7.69938 -4.48718,-10.31875 -1.1326,-2.61938 -2.62721,-6.03931 -3.32136,-7.59986 l -1.26208,-2.83737 -0.6926,0.49483 c -0.38093,0.27216 -2.419008,2.15688 -4.52906,4.18827 -11.160545,10.7445 -19.943254,23.45842 -26.019835,37.66654 -6.926989,16.19651 -10.036964,32.13634 -9.61844,49.29824 0.284974,11.68554 1.753336,20.78301 5.090471,31.53884 1.078214,3.47516 1.101947,3.82473 0.319157,4.7008 -0.822362,0.92035 -1.723497,1.06865 -2.880866,0.47411 z m -3.222958,-8.62248 c -0.370523,-0.96557 -2.315506,-10.15072 -2.695404,-12.729 -1.158632,-7.86338 -1.562291,-20.10735 -0.915893,-27.78125 1.776811,-21.09391 9.154467,-42.02349 20.84481,-59.13438 6.188351,-9.05775 14.406032,-18.11261 21.880628,-24.10973 2.43327,-1.95229 3.25291,-2.31268 4.23852,-1.8636 0.76758,0.34973 1.17617,1.13274 4.02695,7.71708 1.2286,2.83766 3.16774,7.3025 4.3092,9.92188 1.14146,2.61937 3.13226,7.20328 4.42399,10.18645 1.29174,2.98318 2.46762,5.42396 2.61308,5.42396 0.14545,0 1.61837,-1.78594 3.27314,-3.96875 6.4265,-8.47721 11.67592,-14.82397 20.23866,-24.46938 4.11292,-4.63297 16.52456,-17.201011 22.0314,-22.309034 2.36737,-2.195924 4.26846,-4.100144 4.22464,-4.2316 -0.28743,-0.862289 -79.543913,-40.517393 -80.022789,-40.038517 -0.127166,0.127165 0.591598,3.432848 2.726809,12.540927 1.818599,7.757524 4.076396,18.204076 4.076396,18.86099 0,0.6354 -1.190507,1.714616 -3.704166,3.357892 C 85.04903,81.489129 76.272483,88.59 68.934808,95.70277 c -10.566592,10.24272 -18.593079,21.02411 -24.632276,33.08671 -9.226568,18.42903 -12.055349,36.71863 -8.706775,56.29406 1.663281,9.72338 6.236665,21.13607 11.821892,29.50104 2.946478,4.41293 5.676671,7.66123 9.840422,11.70782 3.08118,2.99448 4.149109,3.80365 3.792088,2.87327 z"
       id="path1" /></g></svg>
