<?xml version="1.0" encoding="UTF-8" standalone="no"?>
<!-- Created with Inkscape (http://www.inkscape.org/) -->

<svg
   width="210mm"
   height="297mm"
   viewBox="0 0 210 297"
   version="1.1"
   id="svg1"
   xml:space="preserve"
   inkscape:version="1.3 (0e150ed6c4, 2023-07-21)"
   sodipodi:docname="arrow.svg"
   xmlns:inkscape="http://www.inkscape.org/namespaces/inkscape"
   xmlns:sodipodi="http://sodipodi.sourceforge.net/DTD/sodipodi-0.dtd"
   xmlns="http://www.w3.org/2000/svg"
   xmlns:svg="http://www.w3.org/2000/svg"><sodipodi:namedview
     id="namedview1"
     pagecolor="#505050"
     bordercolor="#eeeeee"
     borderopacity="1"
     inkscape:showpageshadow="0"
     inkscape:pageopacity="0"
     inkscape:pagecheckerboard="0"
     inkscape:deskcolor="#505050"
     inkscape:document-units="mm"
     inkscape:zoom="0.70710678"
     inkscape:cx="-155.56349"
     inkscape:cy="337.28993"
     inkscape:window-width="2560"
     inkscape:window-height="1369"
     inkscape:window-x="2552"
     inkscape:window-y="-8"
     inkscape:window-maximized="1"
     inkscape:current-layer="layer1" /><defs
     id="defs1" /><g
     inkscape:label="Layer 1"
     inkscape:groupmode="layer"
     id="layer1"><path
       style="fill:#000000"
       d="m 133.21771,212.25454 v -7.31581 l -27.31823,-0.0674 -27.31823,-0.0674 v -14.55209 -14.55208 l 27.31823,-0.0674 27.31823,-0.0674 v -4.77909 -4.77909 l 0.59531,0.19431 c 0.32742,0.10687 0.83344,0.21399 1.12448,0.23804 0.50914,0.0421 0.53186,0.26065 0.60047,5.77664 l 0.0713,5.73292 H 108.35203 81.094792 v 12.30312 12.30313 h 27.252078 27.25209 v 5.95312 c 0,3.27422 0.0709,5.95313 0.15759,5.95313 0.22709,0 1.12572,-0.64531 7.9122,-5.68182 3.34698,-2.48392 8.22854,-6.08977 10.84791,-8.013 6.02389,-4.42293 12.31536,-9.08809 13.38095,-9.92204 l 0.82084,-0.6424 -5.86999,-4.34068 c -3.22849,-2.38738 -7.79667,-5.76944 -10.15151,-7.51569 -2.35485,-1.74625 -6.99355,-5.1845 -10.30823,-7.64055 -3.78779,-2.80661 -5.97736,-4.59414 -5.89388,-4.81169 0.10838,-0.28242 -0.0527,-0.28065 -0.87545,0.01 -0.79124,0.27917 -1.14399,0.28824 -1.63883,0.0421 -0.58286,-0.28986 -0.63637,-0.48989 -0.70733,-2.64384 -0.0523,-1.58665 0.0124,-2.27512 0.20275,-2.15749 0.15374,0.095 0.21102,0.28359 0.1273,0.41905 -0.0837,0.13547 0.0803,0.2463 0.36458,0.2463 0.28424,0 0.88481,0.34377 1.33459,0.76393 0.44979,0.42016 1.01267,0.83872 1.25087,0.93012 0.32838,0.12601 0.39439,0.37307 0.27305,1.02201 -0.13661,0.73063 -0.11626,0.77841 0.13906,0.32665 0.16449,-0.29104 0.33418,-0.57192 0.37711,-0.62417 0.0429,-0.0523 0.44893,0.16909 0.90225,0.49188 0.45332,0.32279 0.76202,0.64909 0.686,0.72511 -0.076,0.076 -0.0161,0.36641 0.13317,0.64531 0.18181,0.33972 0.43732,0.45443 0.77411,0.34754 0.49238,-0.15628 2.66274,1.38061 17.19214,12.17413 2.25557,1.67561 6.41081,4.742 9.23387,6.81421 2.82305,2.07221 5.42514,4.01037 5.78241,4.30701 l 0.64958,0.53936 -3.00429,2.21165 c -5.03087,3.70355 -10.30531,7.60671 -16.46966,12.18776 -3.23095,2.4011 -6.99987,5.19436 -8.37538,6.20724 -7.79317,5.73872 -10.75221,7.93632 -11.16601,8.29269 -0.43943,0.37843 -0.46302,0.0259 -0.46302,-6.91706 z m 1.05833,-47.79953 c -0.29104,-0.29105 -0.58971,-0.52917 -0.6637,-0.52917 -0.074,0 0.0142,0.23812 0.19594,0.52917 0.18175,0.29104 0.48042,0.52916 0.6637,0.52916 0.2026,0 0.1258,-0.20743 -0.19594,-0.52916 z m 5.20347,1.67569 C 0,0 0,0 139.47951,166.1307 Z"
       id="path2"
       sodipodi:nodetypes="ccccccccccssscccccccssssscssssccsssssssscssssssscsscsscsssssss" /><path
       style="fill:#000000"
       d="m 133.21771,212.25454 v -7.31581 l -27.31823,-0.0674 -27.31823,-0.0674 v -14.55209 -14.55208 l 27.31823,-0.0674 27.31823,-0.0674 v -4.77909 -4.77909 l 0.59531,0.19431 c 0.32742,0.10687 0.71651,-0.0316 1.00755,-0.008 0.50914,0.0421 0.64879,0.5062 0.7174,6.02219 l 0.0713,5.73292 H 108.35203 81.094792 v 12.30312 12.30313 h 27.252078 27.25209 v 5.95312 c 0,3.27422 0.0709,5.95313 0.15759,5.95313 0.22709,0 1.12572,-0.64531 7.9122,-5.68182 3.34698,-2.48392 8.22854,-6.08977 10.84791,-8.013 6.02389,-4.42293 12.31536,-9.08809 13.38095,-9.92204 l 0.82084,-0.6424 -5.86999,-4.34068 c -3.22849,-2.38738 -7.79667,-5.76944 -10.15151,-7.51569 -2.35485,-1.74625 -6.99355,-5.1845 -10.30823,-7.64055 -3.78779,-2.80661 -8.32766,-4.80461 -8.24418,-5.02216 0.10838,-0.28242 1.4557,0.4677 0.63299,0.75835 -0.79124,0.27917 -0.59975,0.22992 -1.09459,-0.0162 -0.76995,1.06653 -0.33871,-0.96945 -0.40967,-3.1234 -0.0523,-1.58665 0.0124,-2.27512 0.20275,-2.15749 0.15374,0.095 0.21102,0.28359 0.1273,0.41905 -0.0837,0.13547 -0.30004,-0.20018 -0.0158,-0.20018 0.28424,0 4.34595,3.57105 4.79573,3.99121 0.44979,0.42016 -2.37527,-2.09237 -2.13707,-2.00097 0.32838,0.12601 1.66064,1.03599 1.5393,1.68493 -0.13661,0.73063 -1.67068,-0.19724 -1.41536,-0.649 0.16449,-0.29104 0.0365,0.12261 0.0795,0.0704 0.0429,-0.0523 1.3419,-0.0624 1.79522,0.26037 0.45332,0.32279 2.39905,1.92363 2.32303,1.99965 -0.076,0.076 -0.66191,-0.49686 -0.51264,-0.21796 0.18181,0.33972 -0.55427,0.0432 -0.21711,-0.0637 0.49238,-0.15628 2.66274,1.38061 17.19214,12.17413 2.25557,1.67561 6.41081,4.742 9.23387,6.81421 2.82305,2.07221 5.42514,4.01037 5.78241,4.30701 l 0.64958,0.53936 -3.00429,2.21165 c -5.03087,3.70355 -10.30531,7.60671 -16.46966,12.18776 -3.23095,2.4011 -6.99987,5.19436 -8.37538,6.20724 -7.79317,5.73872 -10.75221,7.93632 -11.16601,8.29269 -0.43943,0.37843 -0.46302,0.0259 -0.46302,-6.91706 z m 1.38573,-46.53668 c -0.27166,0.30921 -0.93365,-0.98173 -1.00764,-0.98173 -0.074,0 0.42761,-0.75407 0.60935,-0.46302 0.18175,0.29104 0.66825,-0.32962 0.85148,-0.32962 0.2026,0 0.7851,0.36487 -0.45319,1.77437 z m 5.30636,0.63916 c 0.78635,0.23038 -0.28964,-0.0849 0,0 z"
       id="path1"
       sodipodi:nodetypes="ccccccccccssscccccccssssscssssccsssssssscssssssscsscsscsssssss" /></g></svg>
