<?xml version="1.0" encoding="UTF-8" standalone="no"?>
<!-- Created with Inkscape (http://www.inkscape.org/) -->

<svg
   width="210mm"
   height="297mm"
   viewBox="0 0 210 297"
   version="1.1"
   id="svg1"
   xml:space="preserve"
   inkscape:version="1.3 (0e150ed6c4, 2023-07-21)"
   sodipodi:docname="seed.svg"
   xmlns:inkscape="http://www.inkscape.org/namespaces/inkscape"
   xmlns:sodipodi="http://sodipodi.sourceforge.net/DTD/sodipodi-0.dtd"
   xmlns="http://www.w3.org/2000/svg"
   xmlns:svg="http://www.w3.org/2000/svg"><sodipodi:namedview
     id="namedview1"
     pagecolor="#505050"
     bordercolor="#eeeeee"
     borderopacity="1"
     inkscape:showpageshadow="0"
     inkscape:pageopacity="0"
     inkscape:pagecheckerboard="0"
     inkscape:deskcolor="#505050"
     inkscape:document-units="mm"
     inkscape:zoom="0.73386633"
     inkscape:cx="-211.21013"
     inkscape:cy="240.50701"
     inkscape:window-width="2560"
     inkscape:window-height="1369"
     inkscape:window-x="2552"
     inkscape:window-y="-8"
     inkscape:window-maximized="1"
     inkscape:current-layer="layer1" /><defs
     id="defs1" /><g
     inkscape:label="Layer 1"
     inkscape:groupmode="layer"
     id="layer1"><path
       style="fill:#000000"
       d="m 56.320699,41.831453 c -82.372476,26.225142 -82.372476,26.225142 0,0 z m -1.536478,4.866995 c -0.18598,-0.08673 -0.667822,-0.814213 -1.070747,-1.616635 -1.057736,-2.106477 -3.179823,-7.157361 -2.647339,-6.454385 0.248459,0.328009 1.170179,1.758001 1.249585,1.800722 0.07939,0.04275 0.287999,0.722299 0.463527,1.510182 0.175537,0.787886 0.503734,1.729151 0.729329,2.091709 0.320751,0.515476 0.327017,0.174888 0.02874,-1.562223 -0.20979,-1.221776 -0.585153,-3.104633 -0.834142,-4.184127 -0.24899,-1.079494 -0.465077,-2.165537 -0.480192,-2.413431 -0.06546,-1.073458 0.38849,0.684019 1.345631,5.20966 0.553541,2.617309 1.130106,4.871509 1.281253,5.009324 0.398695,0.363538 0.298709,-0.862584 -0.221343,-2.714314 -0.495463,-1.764163 -1.403414,-7.641252 -1.192367,-7.718067 0.08231,-0.02996 0.264961,0.84875 0.405889,1.95269 0.140921,1.103939 0.333464,2.124832 0.427874,2.268649 0.231352,0.352423 0.428647,-1.823297 0.279881,-3.086376 -0.101054,-0.857961 -0.243106,-1.055843 -0.928219,-1.293017 -0.444894,-0.154024 -0.936609,-0.32819 -1.092695,-0.38704 -0.433563,-0.163478 -0.962134,0.475697 -0.825229,0.997911 0.09823,0.374664 0.05492,0.395187 -0.224162,0.106245 -0.289872,-0.300054 -0.09182,-0.499986 -0.176198,0.04809 -0.05539,0.359732 -0.30073,1.290691 -0.21472,1.76585 0.202984,1.12138 0.07426,1.371643 -0.276935,0.538425 -0.411313,-0.975838 0.420763,-2.44022 0.74227,-3.506034 0.139483,-0.462394 -0.832818,0.562136 0.521367,-2.688107 l 1.3311,0.205733 c 0.152963,0.928556 0.521106,2.087331 0.818092,2.575066 0.515052,0.845857 0.61932,1.85001 0.594052,5.720806 -0.0057,0.880425 0.155855,2.381214 0.359118,3.335082 0.376047,1.764686 0.216725,2.772147 -0.393398,2.487642 z M 53.283233,34.717043 C 0,0 0,0 53.283233,34.717043 Z m -1.211178,4.294122 c -0.201508,-0.655944 -0.379347,-1.461409 -0.395187,-1.789923 -0.03823,-0.792803 0.137523,-0.230889 0.481047,1.538026 l 0.280529,1.44452 z"
       id="path2"
       sodipodi:nodetypes="ssssscssssssssssssssssssssccsssssssssscs" /></g></svg>
